  0
SECTION
  2
HEADER
  9
$ACADVER
  1
AC1014
  9
$HANDSEED
  5
FFFF
  9
$MEASUREMENT
 70
     1
  0
ENDSEC
  0
SECTION
  2
TABLES
  0
TABLE
  2
VPORT
  5
8
330
0
100
AcDbSymbolTable
 70
     4
  0
VPORT
  5
2E
330
8
100
AcDbSymbolTableRecord
100
AcDbViewportTableRecord
  2
*ACTIVE
 70
     0
 10
0.0
 20
0.0
 11
1.0
 21
1.0
 12
210.0
 22
148.5
 13
0.0
 23
0.0
 14
10.0
 24
10.0
 15
10.0
 25
10.0
 16
0.0
 26
0.0
 36
1.0
 17
0.0
 27
0.0
 37
0.0
 40
341.0
 41
1.24
 42
50.0
 43
0.0
 44
0.0
 50
0.0
 51
0.0
 71
     0
 72
   100
 73
     1
 74
     3
 75
     0
 76
     0
 77
     0
 78
     0
  0
ENDTAB
  0
TABLE
  2
LTYPE
  5
5
330
0
100
AcDbSymbolTable
 70
     1
  0
LTYPE
  5
14
330
5
100
AcDbSymbolTableRecord
100
AcDbLinetypeTableRecord
  2
BYBLOCK
 70
     0
  3

 72
    65
 73
     0
 40
0.0
  0
LTYPE
  5
15
330
5
100
AcDbSymbolTableRecord
100
AcDbLinetypeTableRecord
  2
BYLAYER
 70
     0
  3

 72
    65
 73
     0
 40
0.0
  0
LTYPE
  5
16
330
5
100
AcDbSymbolTableRecord
100
AcDbLinetypeTableRecord
  2
CONTINUOUS
 70
     0
  3
Solid line
 72
    65
 73
     0
 40
0.0
  0
ENDTAB
  0
TABLE
  2
LAYER
  5
2
100
AcDbSymbolTable
 70
2
  0
LAYER
  5
50
100
AcDbSymbolTableRecord
100
AcDbLayerTableRecord
  2
0
 70
0
  6
CONTINUOUS
  0
LAYER
  5
51
100
AcDbSymbolTableRecord
100
AcDbLayerTableRecord
  2
Layer_1
 70
0
  6
CONTINUOUS
  0
ENDTAB
  0
TABLE
  2
STYLE
  5
3
330
0
100
AcDbSymbolTable
 70
     1
  0
STYLE
  5
11
330
3
100
AcDbSymbolTableRecord
100
AcDbTextStyleTableRecord
  2
STANDARD
 70
     0
 40
0.0
 41
1.0
 50
0.0
 71
     0
 42
2.5
  3
txt
  4

  0
ENDTAB
  0
TABLE
  2
VIEW
  5
6
330
0
100
AcDbSymbolTable
 70
     0
  0
ENDTAB
  0
TABLE
  2
UCS
  5
7
330
0
100
AcDbSymbolTable
 70
     0
  0
ENDTAB
  0
TABLE
  2
APPID
  5
9
330
0
100
AcDbSymbolTable
 70
     2
  0
APPID
  5
12
330
9
100
AcDbSymbolTableRecord
100
AcDbRegAppTableRecord
  2
ACAD
 70
     0
  0
ENDTAB
  0
TABLE
  2
DIMSTYLE
  5
A
330
0
100
AcDbSymbolTable
 70
     1
  0
DIMSTYLE
105
27
330
A
100
AcDbSymbolTableRecord
100
AcDbDimStyleTableRecord
  2
ISO-25
 70
     0
  3

  4

  5

  6

  7

 40
1.0
 41
2.5
 42
0.625
 43
3.75
 44
1.25
 45
0.0
 46
0.0
 47
0.0
 48
0.0
140
2.5
141
2.5
142
0.0
143
0.03937007874016
144
1.0
145
0.0
146
1.0
147
0.625
 71
     0
 72
     0
 73
     0
 74
     0
 75
     0
 76
     0
 77
     1
 78
     8
170
     0
171
     3
172
     1
173
     0
174
     0
175
     0
176
     0
177
     0
178
     0
270
     2
271
     2
272
     2
273
     2
274
     3
340
11
275
     0
280
     0
281
     0
282
     0
283
     0
284
     8
285
     0
286
     0
287
     3
288
     0
  0
ENDTAB
  0
TABLE
  2
BLOCK_RECORD
  5
1
330
0
100
AcDbSymbolTable
 70
     1
  0
BLOCK_RECORD
  5
1F
330
1
100
AcDbSymbolTableRecord
100
AcDbBlockTableRecord
  2
*MODEL_SPACE
  0
BLOCK_RECORD
  5
1B
330
1
100
AcDbSymbolTableRecord
100
AcDbBlockTableRecord
  2
*PAPER_SPACE
  0
ENDTAB
  0
ENDSEC
  0
SECTION
  2
BLOCKS
  0
BLOCK
  5
20
330
1F
100
AcDbEntity
  8
0
100
AcDbBlockBegin
  2
*MODEL_SPACE
 70
     0
 10
0.0
 20
0.0
 30
0.0
  3
*MODEL_SPACE
  1

  0
ENDBLK
  5
21
330
1F
100
AcDbEntity
  8
0
100
AcDbBlockEnd
  0
BLOCK
  5
1C
330
1B
100
AcDbEntity
 67
     1
  8
0
100
AcDbBlockBegin
  2
*PAPER_SPACE
  1

  0
ENDBLK
  5
1D
330
1B
100
AcDbEntity
 67
     1
  8
0
100
AcDbBlockEnd
  0
ENDSEC
  0
SECTION
  2
ENTITIES
  0
SPLINE
  5
100
100
AcDbEntity
  8
Layer_1
 62
7
100
AcDbSpline
 70
8
 71
3
 72
8
 73
4
 74
0
 40
0
 40
0
 40
0
 40
0
 40
1
 40
1
 40
1
 40
1
 10
486.506299
 20
1060.067743
 30
0.0
 10
486.506299
 20
1060.136143
 30
0.0
 10
486.506801
 20
1060.203966
 30
0.0
 10
486.506801
 20
1060.272379
 30
0.0
  0
LWPOLYLINE
  5
101
100
AcDbEntity
  8
Layer_1
 62
7
100
AcDbPolyline
 90
4
 70
0
 10
499.030094
 20
1127.241977
 30
0.0
 10
499.030094
 20
1127.066278
 30
0.0
 10
498.856448
 20
1127.098319
 30
0.0
 10
486.506299
 20
1060.067743
 30
0.0
  0
SPLINE
  5
102
100
AcDbEntity
  8
Layer_1
 62
7
100
AcDbSpline
 70
8
 71
3
 72
8
 73
4
 74
0
 40
0
 40
0
 40
0
 40
0
 40
1
 40
1
 40
1
 40
1
 10
486.153847
 20
1060.272379
 30
0.0
 10
486.153847
 20
1059.555369
 30
0.0
 10
486.149746
 20
1058.843449
 30
0.0
 10
486.148688
 20
1058.127806
 30
0.0
  0
LWPOLYLINE
  5
103
100
AcDbEntity
  8
Layer_1
 62
7
100
AcDbPolyline
 90
2
 70
0
 10
486.506801
 20
1060.272379
 30
0.0
 10
486.153847
 20
1060.272379
 30
0.0
  0
SPLINE
  5
104
100
AcDbEntity
  8
Layer_1
 62
7
100
AcDbSpline
 70
8
 71
3
 72
8
 73
4
 74
0
 40
0
 40
0
 40
0
 40
0
 40
1
 40
1
 40
1
 40
1
 10
432.742614
 20
768.265223
 30
0.0
 10
432.267687
 20
768.318351
 30
0.0
 10
431.785774
 20
768.348408
 30
0.0
 10
431.296718
 20
768.348408
 30
0.0
  0
SPLINE
  5
105
100
AcDbEntity
  8
Layer_1
 62
7
100
AcDbSpline
 70
8
 71
3
 72
8
 73
4
 74
0
 40
0
 40
0
 40
0
 40
0
 40
1
 40
1
 40
1
 40
1
 10
431.296718
 20
768.348408
 30
0.0
 10
425.476992
 20
768.348408
 30
0.0
 10
420.559311
 20
764.483266
 30
0.0
 10
418.965672
 20
759.181516
 30
0.0
  0
LWPOLYLINE
  5
106
100
AcDbEntity
  8
Layer_1
 62
7
100
AcDbPolyline
 90
2
 70
0
 10
486.148688
 20
1058.127806
 30
0.0
 10
432.742614
 20
768.265223
 30
0.0
  0
SPLINE
  5
107
100
AcDbEntity
  8
Layer_1
 62
7
100
AcDbSpline
 70
8
 71
3
 72
8
 73
4
 74
0
 40
0
 40
0
 40
0
 40
0
 40
1
 40
1
 40
1
 40
1
 10
551.253797
 20
644.876284
 30
0.0
 10
550.123602
 20
644.956480
 30
0.0
 10
549.026956
 20
645.826536
 30
0.0
 10
547.978042
 20
647.524712
 30
0.0
  0
SPLINE
  5
108
100
AcDbEntity
  8
Layer_1
 62
7
100
AcDbSpline
 70
8
 71
3
 72
8
 73
4
 74
0
 40
0
 40
0
 40
0
 40
0
 40
1
 40
1
 40
1
 40
1
 10
547.978042
 20
647.524712
 30
0.0
 10
546.929100
 20
649.222915
 30
0.0
 10
545.942468
 20
651.730611
 30
0.0
 10
545.029364
 20
654.998667
 30
0.0
  0
SPLINE
  5
109
100
AcDbEntity
  8
Layer_1
 62
7
100
AcDbSpline
 70
8
 71
3
 72
8
 73
4
 74
0
 40
0
 40
0
 40
0
 40
0
 40
1
 40
1
 40
1
 40
1
 10
545.029364
 20
654.998667
 30
0.0
 10
543.203183
 20
661.534832
 30
0.0
 10
541.667884
 20
671.112913
 30
0.0
 10
540.430162
 20
683.398002
 30
0.0
  0
SPLINE
  5
10a
100
AcDbEntity
  8
Layer_1
 62
7
100
AcDbSpline
 70
8
 71
3
 72
8
 73
4
 74
0
 40
0
 40
0
 40
0
 40
0
 40
1
 40
1
 40
1
 40
1
 10
540.430162
 20
683.398002
 30
0.0
 10
537.954745
 20
707.968204
 30
0.0
 10
536.665695
 20
743.371196
 30
0.0
 10
536.569942
 20
787.013425
 30
0.0
  0
SPLINE
  5
10b
100
AcDbEntity
  8
Layer_1
 62
7
100
AcDbSpline
 70
8
 71
3
 72
8
 73
4
 74
0
 40
0
 40
0
 40
0
 40
0
 40
1
 40
1
 40
1
 40
1
 10
536.569942
 20
787.013425
 30
0.0
 10
536.378410
 20
874.297934
 30
0.0
 10
540.959409
 20
994.542533
 30
0.0
 10
550.358764
 20
1127.053358
 30
0.0
  0
LWPOLYLINE
  5
10c
100
AcDbEntity
  8
Layer_1
 62
7
100
AcDbPolyline
 90
13
 70
0
 10
418.965672
 20
759.181516
 30
0.0
 10
303.856345
 20
779.752883
 30
0.0
 10
303.825335
 20
779.580798
 30
0.0
 10
303.825335
 20
779.756005
 30
0.0
 10
265.725311
 20
779.756005
 30
0.0
 10
265.725311
 20
779.579263
 30
0.0
 10
265.549099
 20
779.579263
 30
0.0
 10
265.549099
 20
644.699543
 30
0.0
 10
265.725311
 20
644.699543
 30
0.0
 10
265.725311
 20
644.523330
 30
0.0
 10
551.241388
 20
644.523330
 30
0.0
 10
551.241388
 20
644.703697
 30
0.0
 10
551.253797
 20
644.876284
 30
0.0
  0
LWPOLYLINE
  5
10d
100
AcDbEntity
  8
Layer_1
 62
7
100
AcDbPolyline
 90
5
 70
0
 10
550.358764
 20
1127.053358
 30
0.0
 10
550.183054
 20
1127.065762
 30
0.0
 10
550.183054
 20
1127.241977
 30
0.0
 10
499.030094
 20
1127.241977
 30
0.0
 10
499.030094
 20
1127.241977
 30
0.0
  0
SPLINE
  5
10e
100
AcDbEntity
  8
Layer_1
 62
7
100
AcDbSpline
 70
8
 71
3
 72
8
 73
4
 74
0
 40
0
 40
0
 40
0
 40
0
 40
1
 40
1
 40
1
 40
1
 10
549.993401
 20
1126.889544
 30
0.0
 10
540.602644
 20
994.446706
 30
0.0
 10
536.026038
 20
874.268300
 30
0.0
 10
536.217490
 20
787.012393
 30
0.0
  0
SPLINE
  5
10f
100
AcDbEntity
  8
Layer_1
 62
7
100
AcDbSpline
 70
8
 71
3
 72
8
 73
4
 74
0
 40
0
 40
0
 40
0
 40
0
 40
1
 40
1
 40
1
 40
1
 10
536.217490
 20
787.012393
 30
0.0
 10
536.313296
 20
743.363603
 30
0.0
 10
537.601685
 20
707.954499
 30
0.0
 10
540.079272
 20
683.362838
 30
0.0
  0
SPLINE
  5
110
100
AcDbEntity
  8
Layer_1
 62
7
100
AcDbSpline
 70
8
 71
3
 72
8
 73
4
 74
0
 40
0
 40
0
 40
0
 40
0
 40
1
 40
1
 40
1
 40
1
 10
540.079272
 20
683.362838
 30
0.0
 10
541.318078
 20
671.067008
 30
0.0
 10
542.852927
 20
661.476359
 30
0.0
 10
544.689348
 20
654.903576
 30
0.0
  0
SPLINE
  5
111
100
AcDbEntity
  8
Layer_1
 62
7
100
AcDbSpline
 70
8
 71
3
 72
8
 73
4
 74
0
 40
0
 40
0
 40
0
 40
0
 40
1
 40
1
 40
1
 40
1
 10
544.689348
 20
654.903576
 30
0.0
 10
545.607559
 20
651.617184
 30
0.0
 10
546.599932
 20
649.085041
 30
0.0
 10
547.678295
 20
647.339186
 30
0.0
  0
SPLINE
  5
112
100
AcDbEntity
  8
Layer_1
 62
7
100
AcDbSpline
 70
8
 71
3
 72
8
 73
4
 74
0
 40
0
 40
0
 40
0
 40
0
 40
1
 40
1
 40
1
 40
1
 10
547.678295
 20
647.339186
 30
0.0
 10
548.414313
 20
646.147608
 30
0.0
 10
549.197269
 20
645.314752
 30
0.0
 10
550.031130
 20
644.876284
 30
0.0
  0
LWPOLYLINE
  5
113
100
AcDbEntity
  8
Layer_1
 62
7
100
AcDbPolyline
 90
2
 70
0
 10
499.176329
 20
1126.889544
 30
0.0
 10
549.993401
 20
1126.889544
 30
0.0
  0
SPLINE
  5
114
100
AcDbEntity
  8
Layer_1
 62
7
100
AcDbSpline
 70
8
 71
3
 72
8
 73
4
 74
0
 40
0
 40
0
 40
0
 40
0
 40
1
 40
1
 40
1
 40
1
 10
501.320382
 20
644.876284
 30
0.0
 10
501.253601
 20
649.019159
 30
0.0
 10
498.844568
 20
652.950473
 30
0.0
 10
494.578662
 20
656.507613
 30
0.0
  0
SPLINE
  5
115
100
AcDbEntity
  8
Layer_1
 62
7
100
AcDbSpline
 70
8
 71
3
 72
8
 73
4
 74
0
 40
0
 40
0
 40
0
 40
0
 40
1
 40
1
 40
1
 40
1
 10
494.578662
 20
656.507613
 30
0.0
 10
490.252087
 20
660.115368
 30
0.0
 10
484.008869
 20
663.351965
 30
0.0
 10
476.302768
 20
666.069846
 30
0.0
  0
SPLINE
  5
116
100
AcDbEntity
  8
Layer_1
 62
7
100
AcDbSpline
 70
8
 71
3
 72
8
 73
4
 74
0
 40
0
 40
0
 40
0
 40
0
 40
1
 40
1
 40
1
 40
1
 10
476.302768
 20
666.069846
 30
0.0
 10
460.890594
 20
671.505582
 30
0.0
 10
439.621362
 20
674.862062
 30
0.0
 10
416.127590
 20
674.862062
 30
0.0
  0
SPLINE
  5
117
100
AcDbEntity
  8
Layer_1
 62
7
100
AcDbSpline
 70
8
 71
3
 72
8
 73
4
 74
0
 40
0
 40
0
 40
0
 40
0
 40
1
 40
1
 40
1
 40
1
 10
416.127590
 20
674.862062
 30
0.0
 10
391.497036
 20
674.862062
 30
0.0
 10
369.197992
 20
671.505899
 30
0.0
 10
353.041994
 20
666.070878
 30
0.0
  0
SPLINE
  5
118
100
AcDbEntity
  8
Layer_1
 62
7
100
AcDbSpline
 70
8
 71
3
 72
8
 73
4
 74
0
 40
0
 40
0
 40
0
 40
0
 40
1
 40
1
 40
1
 40
1
 10
353.041994
 20
666.070878
 30
0.0
 10
344.963995
 20
663.353341
 30
0.0
 10
338.421004
 20
660.117220
 30
0.0
 10
333.886043
 20
656.510206
 30
0.0
  0
SPLINE
  5
119
100
AcDbEntity
  8
Layer_1
 62
7
100
AcDbSpline
 70
8
 71
3
 72
8
 73
4
 74
0
 40
0
 40
0
 40
0
 40
0
 40
1
 40
1
 40
1
 40
1
 10
333.886043
 20
656.510206
 30
0.0
 10
329.414635
 20
652.953754
 30
0.0
 10
326.888709
 20
649.022414
 30
0.0
 10
326.818779
 20
644.876284
 30
0.0
  0
LWPOLYLINE
  5
11a
100
AcDbEntity
  8
Layer_1
 62
7
100
AcDbPolyline
 90
2
 70
0
 10
550.031130
 20
644.876284
 30
0.0
 10
501.320382
 20
644.876284
 30
0.0
  0
SPLINE
  5
11b
100
AcDbEntity
  8
Layer_1
 62
7
100
AcDbSpline
 70
8
 71
3
 72
8
 73
4
 74
0
 40
0
 40
0
 40
0
 40
0
 40
1
 40
1
 40
1
 40
1
 10
275.073576
 20
644.876284
 30
0.0
 10
275.070321
 20
682.054711
 30
0.0
 10
274.044531
 20
715.710314
 30
0.0
 10
272.386915
 20
740.086048
 30
0.0
  0
SPLINE
  5
11c
100
AcDbEntity
  8
Layer_1
 62
7
100
AcDbSpline
 70
8
 71
3
 72
8
 73
4
 74
0
 40
0
 40
0
 40
0
 40
0
 40
1
 40
1
 40
1
 40
1
 10
272.386915
 20
740.086048
 30
0.0
 10
271.556785
 20
752.293349
 30
0.0
 10
270.568751
 20
762.172526
 30
0.0
 10
269.469803
 20
769.007803
 30
0.0
  0
SPLINE
  5
11d
100
AcDbEntity
  8
Layer_1
 62
7
100
AcDbSpline
 70
8
 71
3
 72
8
 73
4
 74
0
 40
0
 40
0
 40
0
 40
0
 40
1
 40
1
 40
1
 40
1
 10
269.469803
 20
769.007803
 30
0.0
 10
268.920316
 20
772.425454
 30
0.0
 10
268.343445
 20
775.081423
 30
0.0
 10
267.740697
 20
776.895196
 30
0.0
  0
SPLINE
  5
11e
100
AcDbEntity
  8
Layer_1
 62
7
100
AcDbSpline
 70
8
 71
3
 72
8
 73
4
 74
0
 40
0
 40
0
 40
0
 40
0
 40
1
 40
1
 40
1
 40
1
 10
267.740697
 20
776.895196
 30
0.0
 10
267.439310
 20
777.802082
 30
0.0
 10
267.133028
 20
778.498175
 30
0.0
 10
266.809495
 20
778.981357
 30
0.0
  0
SPLINE
  5
11f
100
AcDbEntity
  8
Layer_1
 62
7
100
AcDbSpline
 70
8
 71
3
 72
8
 73
4
 74
0
 40
0
 40
0
 40
0
 40
0
 40
1
 40
1
 40
1
 40
1
 10
266.809495
 20
778.981357
 30
0.0
 10
266.699085
 20
779.146219
 30
0.0
 10
266.584441
 20
779.286819
 30
0.0
 10
266.465828
 20
779.403051
 30
0.0
  0
LWPOLYLINE
  5
120
100
AcDbEntity
  8
Layer_1
 62
7
100
AcDbPolyline
 90
2
 70
0
 10
326.818779
 20
644.876284
 30
0.0
 10
275.073576
 20
644.876284
 30
0.0
  0
SPLINE
  5
121
100
AcDbEntity
  8
Layer_1
 62
7
100
AcDbSpline
 70
8
 71
3
 72
8
 73
4
 74
0
 40
0
 40
0
 40
0
 40
0
 40
1
 40
1
 40
1
 40
1
 10
418.869046
 20
758.840468
 30
0.0
 10
418.578427
 20
757.766391
 30
0.0
 10
418.420471
 20
756.637942
 30
0.0
 10
418.420471
 20
755.472187
 30
0.0
  0
SPLINE
  5
122
100
AcDbEntity
  8
Layer_1
 62
7
100
AcDbSpline
 70
8
 71
3
 72
8
 73
4
 74
0
 40
0
 40
0
 40
0
 40
0
 40
1
 40
1
 40
1
 40
1
 10
418.420471
 20
755.472187
 30
0.0
 10
418.420471
 20
748.362644
 30
0.0
 10
424.187174
 20
742.595438
 30
0.0
 10
431.296718
 20
742.595438
 30
0.0
  0
SPLINE
  5
123
100
AcDbEntity
  8
Layer_1
 62
7
100
AcDbSpline
 70
8
 71
3
 72
8
 73
4
 74
0
 40
0
 40
0
 40
0
 40
0
 40
1
 40
1
 40
1
 40
1
 10
431.296718
 20
742.595438
 30
0.0
 10
438.406235
 20
742.595438
 30
0.0
 10
444.173441
 20
748.362644
 30
0.0
 10
444.173441
 20
755.472187
 30
0.0
  0
SPLINE
  5
124
100
AcDbEntity
  8
Layer_1
 62
7
100
AcDbSpline
 70
8
 71
3
 72
8
 73
4
 74
0
 40
0
 40
0
 40
0
 40
0
 40
1
 40
1
 40
1
 40
1
 10
444.173441
 20
755.472187
 30
0.0
 10
444.173441
 20
761.971681
 30
0.0
 10
439.352571
 20
767.345795
 30
0.0
 10
433.093505
 20
768.220773
 30
0.0
  0
LWPOLYLINE
  5
125
100
AcDbEntity
  8
Layer_1
 62
7
100
AcDbPolyline
 90
3
 70
0
 10
266.465828
 20
779.403051
 30
0.0
 10
303.808296
 20
779.403051
 30
0.0
 10
418.869046
 20
758.840468
 30
0.0
  0
SPLINE
  5
126
100
AcDbEntity
  8
Layer_1
 62
7
100
AcDbSpline
 70
8
 71
3
 72
8
 73
4
 74
0
 40
0
 40
0
 40
0
 40
0
 40
1
 40
1
 40
1
 40
1
 10
439.076611
 20
800.695805
 30
0.0
 10
442.331649
 20
800.787324
 30
0.0
 10
445.494216
 20
802.626973
 30
0.0
 10
448.527719
 20
806.016420
 30
0.0
  0
SPLINE
  5
127
100
AcDbEntity
  8
Layer_1
 62
7
100
AcDbSpline
 70
8
 71
3
 72
8
 73
4
 74
0
 40
0
 40
0
 40
0
 40
0
 40
1
 40
1
 40
1
 40
1
 10
448.527719
 20
806.016420
 30
0.0
 10
451.640252
 20
809.494211
 30
0.0
 10
454.629464
 20
814.604642
 30
0.0
 10
457.476012
 20
821.178801
 30
0.0
  0
SPLINE
  5
128
100
AcDbEntity
  8
Layer_1
 62
7
100
AcDbSpline
 70
8
 71
3
 72
8
 73
4
 74
0
 40
0
 40
0
 40
0
 40
0
 40
1
 40
1
 40
1
 40
1
 10
457.476012
 20
821.178801
 30
0.0
 10
463.169081
 20
834.327093
 30
0.0
 10
468.288217
 20
853.331411
 30
0.0
 10
472.588281
 20
876.811106
 30
0.0
  0
SPLINE
  5
129
100
AcDbEntity
  8
Layer_1
 62
7
100
AcDbSpline
 70
8
 71
3
 72
8
 73
4
 74
0
 40
0
 40
0
 40
0
 40
0
 40
1
 40
1
 40
1
 40
1
 10
472.588281
 20
876.811106
 30
0.0
 10
481.101096
 20
923.294009
 30
0.0
 10
486.395015
 20
987.319581
 30
0.0
 10
486.501642
 20
1058.097834
 30
0.0
  0
LWPOLYLINE
  5
12a
100
AcDbEntity
  8
Layer_1
 62
7
100
AcDbPolyline
 90
2
 70
0
 10
433.093505
 20
768.220773
 30
0.0
 10
439.076611
 20
800.695805
 30
0.0
  0
SPLINE
  5
12b
100
AcDbEntity
  8
Layer_1
 62
7
100
AcDbSpline
 70
8
 71
3
 72
8
 73
4
 74
0
 40
0
 40
0
 40
0
 40
0
 40
1
 40
1
 40
1
 40
1
 10
486.144560
 20
1056.157900
 30
0.0
 10
485.944958
 20
986.167827
 30
0.0
 10
480.671359
 20
922.901499
 30
0.0
 10
472.242047
 20
876.874686
 30
0.0
  0
SPLINE
  5
12c
100
AcDbEntity
  8
Layer_1
 62
7
100
AcDbSpline
 70
8
 71
3
 72
8
 73
4
 74
0
 40
0
 40
0
 40
0
 40
0
 40
1
 40
1
 40
1
 40
1
 10
472.242047
 20
876.874686
 30
0.0
 10
467.944840
 20
853.410601
 30
0.0
 10
462.826975
 20
834.424671
 30
0.0
 10
457.152506
 20
821.319374
 30
0.0
  0
SPLINE
  5
12d
100
AcDbEntity
  8
Layer_1
 62
7
100
AcDbSpline
 70
8
 71
3
 72
8
 73
4
 74
0
 40
0
 40
0
 40
0
 40
0
 40
1
 40
1
 40
1
 40
1
 10
457.152506
 20
821.319374
 30
0.0
 10
454.315271
 20
814.766726
 30
0.0
 10
451.337966
 20
809.684897
 30
0.0
 10
448.265199
 20
806.251555
 30
0.0
  0
SPLINE
  5
12e
100
AcDbEntity
  8
Layer_1
 62
7
100
AcDbSpline
 70
8
 71
3
 72
8
 73
4
 74
0
 40
0
 40
0
 40
0
 40
0
 40
1
 40
1
 40
1
 40
1
 10
448.265199
 20
806.251555
 30
0.0
 10
445.294482
 20
802.932223
 30
0.0
 10
442.246321
 20
801.164885
 30
0.0
 10
439.142227
 20
801.050823
 30
0.0
  0
LWPOLYLINE
  5
12f
100
AcDbEntity
  8
Layer_1
 62
7
100
AcDbPolyline
 90
3
 70
0
 10
486.501642
 20
1058.097834
 30
0.0
 10
499.176329
 20
1126.889544
 30
0.0
 10
499.176329
 20
1126.889544
 30
0.0
  0
SPLINE
  5
130
100
AcDbEntity
  8
Layer_1
 62
7
100
AcDbSpline
 70
8
 71
3
 72
8
 73
4
 74
0
 40
0
 40
0
 40
0
 40
0
 40
1
 40
1
 40
1
 40
1
 10
265.902053
 20
779.368417
 30
0.0
 10
266.088664
 20
779.297905
 30
0.0
 10
266.295621
 20
779.114840
 30
0.0
 10
266.516469
 20
778.784983
 30
0.0
  0
SPLINE
  5
131
100
AcDbEntity
  8
Layer_1
 62
7
100
AcDbSpline
 70
8
 71
3
 72
8
 73
4
 74
0
 40
0
 40
0
 40
0
 40
0
 40
1
 40
1
 40
1
 40
1
 10
266.516469
 20
778.784983
 30
0.0
 10
266.809628
 20
778.347204
 30
0.0
 10
267.110115
 20
777.673918
 30
0.0
 10
267.405840
 20
776.784071
 30
0.0
  0
SPLINE
  5
132
100
AcDbEntity
  8
Layer_1
 62
7
100
AcDbSpline
 70
8
 71
3
 72
8
 73
4
 74
0
 40
0
 40
0
 40
0
 40
0
 40
1
 40
1
 40
1
 40
1
 10
267.405840
 20
776.784071
 30
0.0
 10
267.997264
 20
775.004376
 30
0.0
 10
268.573103
 20
772.359679
 30
0.0
 10
269.120976
 20
768.952002
 30
0.0
  0
SPLINE
  5
133
100
AcDbEntity
  8
Layer_1
 62
7
100
AcDbSpline
 70
8
 71
3
 72
8
 73
4
 74
0
 40
0
 40
0
 40
0
 40
0
 40
1
 40
1
 40
1
 40
1
 10
269.120976
 20
768.952002
 30
0.0
 10
270.216722
 20
762.136569
 30
0.0
 10
271.205286
 20
752.263477
 30
0.0
 10
272.035019
 20
740.062262
 30
0.0
  0
SPLINE
  5
134
100
AcDbEntity
  8
Layer_1
 62
7
100
AcDbSpline
 70
8
 71
3
 72
8
 73
4
 74
0
 40
0
 40
0
 40
0
 40
0
 40
1
 40
1
 40
1
 40
1
 10
272.035019
 20
740.062262
 30
0.0
 10
273.691815
 20
715.698646
 30
0.0
 10
274.717367
 20
682.048202
 30
0.0
 10
274.720648
 20
644.876284
 30
0.0
  0
LWPOLYLINE
  5
135
100
AcDbEntity
  8
Layer_1
 62
7
100
AcDbPolyline
 90
3
 70
0
 10
439.142227
 20
801.050823
 30
0.0
 10
486.144560
 20
1056.157900
 30
0.0
 10
486.144560
 20
1056.157900
 30
0.0
  0
SPLINE
  5
136
100
AcDbEntity
  8
Layer_1
 62
7
100
AcDbSpline
 70
8
 71
3
 72
8
 73
4
 74
0
 40
0
 40
0
 40
0
 40
0
 40
1
 40
1
 40
1
 40
1
 10
431.296718
 20
767.995454
 30
0.0
 10
431.763893
 20
767.995454
 30
0.0
 10
432.224639
 20
767.967725
 30
0.0
 10
432.678532
 20
767.917957
 30
0.0
  0
LWPOLYLINE
  5
137
100
AcDbEntity
  8
Layer_1
 62
7
100
AcDbPolyline
 90
4
 70
0
 10
274.720648
 20
644.876284
 30
0.0
 10
265.902053
 20
644.876284
 30
0.0
 10
265.902053
 20
779.368417
 30
0.0
 10
265.902053
 20
779.368417
 30
0.0
  0
SPLINE
  5
138
100
AcDbEntity
  8
Layer_1
 62
7
100
AcDbSpline
 70
8
 71
3
 72
8
 73
4
 74
0
 40
0
 40
0
 40
0
 40
0
 40
1
 40
1
 40
1
 40
1
 10
419.313969
 20
759.119524
 30
0.0
 10
420.875012
 20
764.257788
 30
0.0
 10
425.646881
 20
767.995454
 30
0.0
 10
431.296718
 20
767.995454
 30
0.0
  0
LWPOLYLINE
  5
139
100
AcDbEntity
  8
Layer_1
 62
7
100
AcDbPolyline
 90
3
 70
0
 10
432.678532
 20
767.917957
 30
0.0
 10
430.683308
 20
757.087602
 30
0.0
 10
419.313969
 20
759.119524
 30
0.0
  0
SPLINE
  5
13a
100
AcDbEntity
  8
Layer_1
 62
7
100
AcDbSpline
 70
8
 71
3
 72
8
 73
4
 74
0
 40
0
 40
0
 40
0
 40
0
 40
1
 40
1
 40
1
 40
1
 10
433.029422
 20
767.873507
 30
0.0
 10
439.127252
 20
767.029909
 30
0.0
 10
443.820487
 20
761.802850
 30
0.0
 10
443.820487
 20
755.472187
 30
0.0
  0
SPLINE
  5
13b
100
AcDbEntity
  8
Layer_1
 62
7
100
AcDbSpline
 70
8
 71
3
 72
8
 73
4
 74
0
 40
0
 40
0
 40
0
 40
0
 40
1
 40
1
 40
1
 40
1
 10
443.820487
 20
755.472187
 30
0.0
 10
443.820487
 20
748.553302
 30
0.0
 10
438.215603
 20
742.948392
 30
0.0
 10
431.296718
 20
742.948392
 30
0.0
  0
SPLINE
  5
13c
100
AcDbEntity
  8
Layer_1
 62
7
100
AcDbSpline
 70
8
 71
3
 72
8
 73
4
 74
0
 40
0
 40
0
 40
0
 40
0
 40
1
 40
1
 40
1
 40
1
 10
431.296718
 20
742.948392
 30
0.0
 10
424.377807
 20
742.948392
 30
0.0
 10
418.773425
 20
748.553302
 30
0.0
 10
418.773425
 20
755.472187
 30
0.0
  0
SPLINE
  5
13d
100
AcDbEntity
  8
Layer_1
 62
7
100
AcDbSpline
 70
8
 71
3
 72
8
 73
4
 74
0
 40
0
 40
0
 40
0
 40
0
 40
1
 40
1
 40
1
 40
1
 10
418.773425
 20
755.472187
 30
0.0
 10
418.773425
 20
756.617199
 30
0.0
 10
418.929794
 20
757.724851
 30
0.0
 10
419.217344
 20
758.778449
 30
0.0
  0
LWPOLYLINE
  5
13e
100
AcDbEntity
  8
Layer_1
 62
7
100
AcDbPolyline
 90
1
 70
1
 10
431.296718
 20
767.995454
 30
0.0
  0
LWPOLYLINE
  5
13f
100
AcDbEntity
  8
Layer_1
 62
7
100
AcDbPolyline
 90
6
 70
0
 10
419.217344
 20
758.778449
 30
0.0
 10
430.793904
 20
756.709327
 30
0.0
 10
430.825415
 20
756.883476
 30
0.0
 10
430.998532
 20
756.851435
 30
0.0
 10
433.029422
 20
767.873507
 30
0.0
 10
433.029422
 20
767.873507
 30
0.0
  0
SPLINE
  5
140
100
AcDbEntity
  8
Layer_1
 62
7
100
AcDbSpline
 70
8
 71
3
 72
8
 73
4
 74
0
 40
0
 40
0
 40
0
 40
0
 40
1
 40
1
 40
1
 40
1
 10
416.127590
 20
674.509636
 30
0.0
 10
439.587760
 20
674.509636
 30
0.0
 10
460.826883
 20
671.154056
 30
0.0
 10
476.185981
 20
665.737053
 30
0.0
  0
SPLINE
  5
141
100
AcDbEntity
  8
Layer_1
 62
7
100
AcDbSpline
 70
8
 71
3
 72
8
 73
4
 74
0
 40
0
 40
0
 40
0
 40
0
 40
1
 40
1
 40
1
 40
1
 10
476.185981
 20
665.737053
 30
0.0
 10
483.865544
 20
663.028565
 30
0.0
 10
490.074287
 20
659.804085
 30
0.0
 10
494.352337
 20
656.236838
 30
0.0
  0
SPLINE
  5
142
100
AcDbEntity
  8
Layer_1
 62
7
100
AcDbSpline
 70
8
 71
3
 72
8
 73
4
 74
0
 40
0
 40
0
 40
0
 40
0
 40
1
 40
1
 40
1
 40
1
 10
494.352337
 20
656.236838
 30
0.0
 10
498.568396
 20
652.721212
 30
0.0
 10
500.900726
 20
648.885015
 30
0.0
 10
500.967427
 20
644.876284
 30
0.0
  0
LWPOLYLINE
  5
143
100
AcDbEntity
  8
Layer_1
 62
7
100
AcDbPolyline
 90
3
 70
1
 10
219.864519
 20
711.198372
 30
0.0
 10
219.864519
 20
710.845418
 30
0.0
 10
219.864519
 20
711.198372
 30
0.0
  0
SPLINE
  5
144
100
AcDbEntity
  8
Layer_1
 62
7
100
AcDbSpline
 70
8
 71
3
 72
8
 73
4
 74
0
 40
0
 40
0
 40
0
 40
0
 40
1
 40
1
 40
1
 40
1
 10
327.171205
 20
644.876284
 30
0.0
 10
327.241213
 20
648.881814
 30
0.0
 10
329.684774
 20
652.717481
 30
0.0
 10
334.105674
 20
656.233743
 30
0.0
  0
SPLINE
  5
145
100
AcDbEntity
  8
Layer_1
 62
7
100
AcDbSpline
 70
8
 71
3
 72
8
 73
4
 74
0
 40
0
 40
0
 40
0
 40
0
 40
1
 40
1
 40
1
 40
1
 10
334.105674
 20
656.233743
 30
0.0
 10
338.591634
 20
659.801784
 30
0.0
 10
345.102346
 20
663.027136
 30
0.0
 10
353.154654
 20
665.735995
 30
0.0
  0
SPLINE
  5
146
100
AcDbEntity
  8
Layer_1
 62
7
100
AcDbSpline
 70
8
 71
3
 72
8
 73
4
 74
0
 40
0
 40
0
 40
0
 40
0
 40
1
 40
1
 40
1
 40
1
 10
353.154654
 20
665.735995
 30
0.0
 10
369.259243
 20
671.153712
 30
0.0
 10
391.529104
 20
674.509636
 30
0.0
 10
416.127590
 20
674.509636
 30
0.0
  0
LWPOLYLINE
  5
147
100
AcDbEntity
  8
Layer_1
 62
7
100
AcDbPolyline
 90
2
 70
0
 10
500.967427
 20
644.876284
 30
0.0
 10
327.171205
 20
644.876284
 30
0.0
  0
LWPOLYLINE
  5
148
100
AcDbEntity
  8
Layer_1
 62
7
100
AcDbPolyline
 90
1
 70
1
 10
416.127590
 20
674.509636
 30
0.0
  0
ENDSEC
  0
SECTION
  2
OBJECTS
  0
DICTIONARY
  5
C
330
0
100
AcDbDictionary
  3
ACAD_GROUP
350
D
  3
ACAD_MLINESTYLE
350
17
  0
DICTIONARY
  5
D
330
C
100
AcDbDictionary
  0
DICTIONARY
  5
1A
330
C
100
AcDbDictionary
  0
DICTIONARY
  5
17
330
C
100
AcDbDictionary
  3
STANDARD
350
18
  0
DICTIONARY
  5
19
330
C
100
AcDbDictionary
  0
ENDSEC
  0
EOF
