999
"DXF R12 Output" (www.mydxf.blogspot.com)
 0 
SECTION
 2 
HEADER
 9 
$ACADVER
 1 
AC1009
 9 
$EXTMIN
 10 
 0 
 20 
 0 
 9 
$EXTMAX
 10 
 8.5 
 20 
 11 
 0 
ENDSEC
 0 
SECTION
 2 
ENTITIES
0
LINE
8
Layer 1
10
0.846666
20
84.666700
11
-0.846666
21
82.973300
0
LINE
8
Layer 1
10
0.000000
20
85.231100
11
0.000000
21
82.408900
0
LINE
8
Layer 1
10
2.257780
20
82.691100
11
1.128890
21
81.562210
0
LINE
8
Layer 1
10
1.693330
20
83.255600
11
0.564440
21
82.126710
0
LINE
8
Layer 1
10
1.128890
20
83.820000
11
0.000000
21
82.691110
0
LINE
8
Layer 1
10
0.846666
20
84.666700
11
-0.846666
21
82.973300
0
LINE
8
Layer 1
10
0.000000
20
85.231100
11
0.000000
21
82.408900
0
LINE
8
Layer 1
10
2.257780
20
82.691100
11
1.128890
21
81.562210
0
LINE
8
Layer 1
10
1.693330
20
83.255600
11
0.564440
21
82.126710
0
LINE
8
Layer 1
10
1.128890
20
83.820000
11
0.000000
21
82.691110
0
LINE
8
Layer 1
10
0.846666
20
84.666700
11
-0.846666
21
82.973300
0
LINE
8
Layer 1
10
0.000000
20
85.231100
11
0.000000
21
82.408900
0
LINE
8
Layer 1
10
2.257780
20
82.691100
11
1.128890
21
81.562210
0
LINE
8
Layer 1
10
1.693330
20
83.255600
11
0.564440
21
82.126710
0
LINE
8
Layer 1
10
1.128890
20
83.820000
11
0.000000
21
82.691110
0
LINE
8
Layer 1
10
0.846666
20
84.666700
11
-0.846666
21
82.973300
0
LINE
8
Layer 1
10
0.000000
20
85.231100
11
0.000000
21
82.408900
0
LINE
8
Layer 1
10
2.257780
20
82.691100
11
1.128890
21
81.562210
0
LINE
8
Layer 1
10
1.693330
20
83.255600
11
0.564440
21
82.126710
0
LINE
8
Layer 1
10
1.128890
20
83.820000
11
0.000000
21
82.691110
0
LINE
8
Layer 1
10
0.846666
20
84.666700
11
-0.846666
21
82.973300
0
LINE
8
Layer 1
10
0.000000
20
85.231100
11
0.000000
21
82.408900
0
LINE
8
Layer 1
10
2.257780
20
82.691100
11
1.128890
21
81.562210
0
LINE
8
Layer 1
10
1.693330
20
83.255600
11
0.564440
21
82.126710
0
LINE
8
Layer 1
10
1.128890
20
83.820000
11
0.000000
21
82.691110
0
LINE
8
Layer 1
10
0.846666
20
84.666700
11
-0.846666
21
82.973300
0
LINE
8
Layer 1
10
0.000000
20
85.231100
11
0.000000
21
82.408900
0
LINE
8
Layer 1
10
2.257780
20
82.691100
11
1.128890
21
81.562210
0
LINE
8
Layer 1
10
1.693330
20
83.255600
11
0.564440
21
82.126710
0
LINE
8
Layer 1
10
1.128890
20
83.820000
11
0.000000
21
82.691110
0
LINE
8
0
10
-457.645000
20
-280.205000
11
-418.666800
21
-271.606770
0
LINE
8
0
10
-418.666800
20
-271.606770
11
-418.666000
21
-238.313000
0
LINE
8
0
10
-418.666000
20
-238.313000
11
-466.886000
21
-238.313000
0
LINE
8
0
10
-466.886000
20
-238.313000
11
-457.645000
21
-280.205000
0
LINE
8
0
10
-457.645000
20
-280.205000
11
-466.886020
21
-238.312800
0
LINE
8
0
10
-466.886020
20
-238.312800
11
-490.916000
21
-238.313000
0
LINE
8
0
10
-490.916000
20
-238.313000
11
-480.559900
21
-285.260100
0
LINE
8
0
10
-480.559900
20
-285.260100
11
-457.645000
21
-280.205000
0
LINE
8
0
10
-495.696000
20
-398.313000
11
-490.665960
21
-392.979650
0
LINE
8
0
10
-490.665960
20
-392.979650
11
-490.666000
21
-287.490000
0
LINE
8
0
10
-490.666000
20
-287.490000
11
-480.560000
21
-285.260700
0
LINE
8
0
10
-480.560000
20
-285.260700
11
-490.916100
21
-238.313600
0
LINE
8
0
10
-490.916100
20
-238.313600
11
-504.000000
21
-238.313000
0
LINE
8
0
10
-504.000000
20
-238.313000
11
-504.000000
21
-398.313000
0
LINE
8
0
10
-504.000000
20
-398.313000
11
-495.696000
21
-398.313000
0
LINE
8
0
10
-369.021000
20
-280.205000
11
-359.779980
21
-238.312800
0
LINE
8
0
10
-359.779980
20
-238.312800
11
-408.000000
21
-238.313000
0
LINE
8
0
10
-408.000000
20
-238.313000
11
-408.000000
21
-271.607000
0
LINE
8
0
10
-408.000000
20
-271.607000
11
-369.021000
21
-280.205000
0
LINE
8
0
10
-369.021000
20
-280.205000
11
-346.105300
21
-285.259990
0
LINE
8
0
10
-346.105300
20
-285.259990
11
-335.749200
21
-238.312890
0
LINE
8
0
10
-335.749200
20
-238.312890
11
-359.780000
21
-238.313000
0
LINE
8
0
10
-359.780000
20
-238.313000
11
-369.021000
21
-280.205000
0
LINE
8
0
10
-335.750000
20
-238.313000
11
-346.106100
21
-285.260100
0
LINE
8
0
10
-346.106100
20
-285.260100
11
-336.000100
21
-287.489400
0
LINE
8
0
10
-336.000100
20
-287.489400
11
-336.000000
21
-392.980000
0
LINE
8
0
10
-336.000000
20
-392.980000
11
-330.969930
21
-398.313350
0
LINE
8
0
10
-330.969930
20
-398.313350
11
-322.666000
21
-398.313000
0
LINE
8
0
10
-322.666000
20
-398.313000
11
-322.666000
21
-238.313000
0
LINE
8
0
10
-322.666000
20
-238.313000
11
-335.750000
21
-238.313000
0
LINE
8
Layer 1
10
24.472600
20
63.203300
11
19.110940
21
64.386030
0
LINE
8
Layer 1
10
19.110940
20
64.386030
11
19.110900
21
42.418500
0
LINE
8
Layer 1
10
19.110900
20
42.418500
11
25.467200
21
42.418500
0
LINE
8
Layer 1
10
25.467200
20
42.418500
11
26.872090
21
43.829620
0
LINE
8
Layer 1
10
26.872090
20
43.829620
11
26.872000
21
59.351900
0
LINE
8
Layer 1
10
26.872000
20
59.351900
11
24.472600
21
63.203300
0
LINE
8
Layer 1
10
44.633800
20
63.203300
11
39.272140
21
64.386030
0
LINE
8
Layer 1
10
39.272140
20
64.386030
11
39.272200
21
42.418500
0
LINE
8
Layer 1
10
39.272200
20
42.418500
11
45.628400
21
42.418500
0
LINE
8
Layer 1
10
45.628400
20
42.418500
11
47.033290
21
43.829620
0
LINE
8
Layer 1
10
47.033290
20
43.829620
11
47.033300
21
59.351900
0
LINE
8
Layer 1
10
47.033300
20
59.351900
11
44.633800
21
63.203300
0
LINE
8
Layer 1
10
84.862700
20
80.095000
11
62.285000
21
80.095000
0
LINE
8
Layer 1
10
62.285000
20
80.095000
11
62.285000
21
37.761700
0
LINE
8
Layer 1
10
62.285000
20
37.761700
11
84.862700
21
37.761700
0
LINE
8
Layer 1
10
84.862700
20
37.761700
11
84.862700
21
80.095000
0
LINE
8
Layer 1
10
112.369000
20
80.095000
11
89.791100
21
80.095000
0
LINE
8
Layer 1
10
89.791100
20
80.095000
11
89.791100
21
37.761700
0
LINE
8
Layer 1
10
89.791100
20
37.761700
11
112.369000
21
37.761700
0
LINE
8
Layer 1
10
112.369000
20
37.761700
11
112.369000
21
80.095000
0
LINE
8
0
10
-149.333000
20
-392.980000
11
-149.333000
21
-254.313000
0
LINE
8
0
10
-149.333000
20
-254.313000
11
-74.666600
21
-254.313000
0
LINE
8
0
10
-74.666600
20
-254.313000
11
-74.666600
21
-392.980000
0
LINE
8
0
10
-74.666600
20
-392.980000
11
-149.333000
21
-392.980000
0
LINE
8
0
10
-170.667000
20
-414.313000
11
-53.333300
21
-414.313000
0
LINE
8
0
10
-53.333300
20
-414.313000
11
-53.333300
21
-232.980000
0
LINE
8
0
10
-53.333300
20
-232.980000
11
-170.667000
21
-232.980000
0
LINE
8
0
10
-170.667000
20
-232.980000
11
-170.667000
21
-414.313000
0
LINE
8
0
10
-149.333000
20
-392.980000
11
-149.333000
21
-254.313000
0
LINE
8
0
10
-149.333000
20
-254.313000
11
-74.666600
21
-254.313000
0
LINE
8
0
10
-74.666600
20
-254.313000
11
-74.666600
21
-392.980000
0
LINE
8
0
10
-74.666600
20
-392.980000
11
-149.333000
21
-392.980000
0
LINE
8
0
10
-170.667000
20
-414.313000
11
-53.333300
21
-414.313000
0
LINE
8
0
10
-53.333300
20
-414.313000
11
-53.333300
21
-232.980000
0
LINE
8
0
10
-53.333300
20
-232.980000
11
-170.667000
21
-232.980000
0
LINE
8
0
10
-170.667000
20
-232.980000
11
-170.667000
21
-414.313000
 0 
ENDSEC
 0 
EOF