<?xml version="1.0" encoding="UTF-8" standalone="no"?>
<svg
   xmlns:dc="http://purl.org/dc/elements/1.1/"
   xmlns:cc="http://creativecommons.org/ns#"
   xmlns:rdf="http://www.w3.org/1999/02/22-rdf-syntax-ns#"
   xmlns:svg="http://www.w3.org/2000/svg"
   xmlns="http://www.w3.org/2000/svg"
   width="297mm"
   height="420mm"
   viewBox="0 0 297 420"
   version="1.1"
   id="svg8">
  <defs
     id="defs2">
    <marker
       id="DistanceX"
       orient="auto"
       refX="0"
       refY="0"
       style="overflow:visible">
      <path
         d="M 3,-3 -3,3 M 0,-5 V 5"
         style="stroke:#000000;stroke-width:0.5"
         id="path10" />
    </marker>
    <pattern
       id="Hatch"
       patternUnits="userSpaceOnUse"
       width="8"
       height="8"
       x="0"
       y="0">
      <path
         d="M8 4 l-4,4"
         stroke="#000000"
         stroke-width="0.25"
         linecap="square"
         id="path13" />
      <path
         d="M6 2 l-4,4"
         stroke="#000000"
         stroke-width="0.25"
         linecap="square"
         id="path15" />
      <path
         d="M4 0 l-4,4"
         stroke="#000000"
         stroke-width="0.25"
         linecap="square"
         id="path17" />
    </pattern>
    <symbol
       id="*MODEL_SPACE" />
    <symbol
       id="*PAPER_SPACE" />
    <marker
       id="DistanceX-0"
       orient="auto"
       refX="0"
       refY="0"
       style="overflow:visible">
      <path
         d="M 3,-3 -3,3 M 0,-5 V 5"
         style="stroke:#000000;stroke-width:0.5"
         id="path52" />
    </marker>
    <pattern
       id="Hatch-0"
       patternUnits="userSpaceOnUse"
       width="8"
       height="8"
       x="0"
       y="0">
      <path
         d="M8 4 l-4,4"
         stroke="#000000"
         stroke-width="0.25"
         linecap="square"
         id="path55" />
      <path
         d="M6 2 l-4,4"
         stroke="#000000"
         stroke-width="0.25"
         linecap="square"
         id="path57" />
      <path
         d="M4 0 l-4,4"
         stroke="#000000"
         stroke-width="0.25"
         linecap="square"
         id="path59" />
    </pattern>
    <symbol
       id="*MODEL_SPACE-0" />
    <symbol
       id="*PAPER_SPACE-7" />
    <marker
       id="DistanceX-5"
       orient="auto"
       refX="0"
       refY="0"
       style="overflow:visible">
      <path
         d="M 3,-3 -3,3 M 0,-5 V 5"
         style="stroke:#000000;stroke-width:0.5"
         id="path88" />
    </marker>
    <pattern
       id="Hatch-9"
       patternUnits="userSpaceOnUse"
       width="8"
       height="8"
       x="0"
       y="0">
      <path
         d="M8 4 l-4,4"
         stroke="#000000"
         stroke-width="0.25"
         linecap="square"
         id="path91" />
      <path
         d="M6 2 l-4,4"
         stroke="#000000"
         stroke-width="0.25"
         linecap="square"
         id="path93" />
      <path
         d="M4 0 l-4,4"
         stroke="#000000"
         stroke-width="0.25"
         linecap="square"
         id="path95" />
    </pattern>
    <symbol
       id="*MODEL_SPACE-5" />
    <symbol
       id="*PAPER_SPACE-5" />
    <marker
       id="DistanceX-8"
       orient="auto"
       refX="0.0"
       refY="0.0"
       style="overflow:visible">
      <path
         d="M 3,-3 L -3,3 M 0,-5 L  0,5"
         style="stroke:#000000; stroke-width:0.5"
         id="path124" />
    </marker>
    <pattern
       id="Hatch-8"
       patternUnits="userSpaceOnUse"
       width="8"
       height="8"
       x="0"
       y="0">
      <path
         d="M8 4 l-4,4"
         stroke="#000000"
         stroke-width="0.25"
         linecap="square"
         id="path127" />
      <path
         d="M6 2 l-4,4"
         stroke="#000000"
         stroke-width="0.25"
         linecap="square"
         id="path129" />
      <path
         d="M4 0 l-4,4"
         stroke="#000000"
         stroke-width="0.25"
         linecap="square"
         id="path131" />
    </pattern>
    <symbol
       id="*MODEL_SPACE-9" />
    <symbol
       id="*PAPER_SPACE-4" />
    <clipPath
       clipPathUnits="userSpaceOnUse"
       id="clipPath1431">
      <path
         style="fill:#000000;stroke:#ff0000;stroke-width:0.123051;stroke-opacity:1"
         d="m 45.41833,175.64131 c -0.109487,-0.0289 -0.247981,-0.15554 -0.307636,-0.28161 -0.108024,-0.22833 -4.905153,-5.87582 -10.456585,-12.31016 -1.605756,-1.86114 -3.603072,-4.18021 -4.438491,-5.1535 -1.382636,-1.61079 -1.821183,-2.30809 -1.673093,-2.66022 0.02853,-0.0677 3.119972,-2.94708 6.870044,-6.39865 3.750074,-3.45158 6.818926,-6.30435 6.81967,-6.3395 7.93e-4,-0.0351 -0.483159,-0.19733 -1.07533,-0.36042 -3.912537,-1.0775 -7.967528,-2.33978 -8.100497,-2.52161 -0.0879,-0.12034 -0.18252,-0.15568 -0.226399,-0.0848 -0.04146,0.0671 -0.01916,0.1567 0.04975,0.19921 0.06877,0.0426 0.125055,0.23936 0.125055,0.43742 0,0.28888 -0.542729,1.01179 -2.742827,3.65351 -3.107769,3.73155 -5.367583,6.50083 -9.214757,11.2922 -1.466971,1.82701 -2.832392,3.47963 -3.03426,3.67247 -0.50541,0.48285 -0.971804,0.36583 -1.860553,-0.46678 -0.375293,-0.3516 -4.253898,-3.84096 -8.6191236,-7.75414 -4.365239,-3.91318 -8.06309362,-7.23468 -8.21747273,-7.38111 -0.154379,-0.14643 -0.30996609,-0.45707 -0.34576277,-0.6903 -0.058525,-0.38141 0.012923,-0.517 0.71136217,-1.34832 0.42703731,-0.50835 2.21612983,-2.66304 3.97575473,-4.78822 1.7596368,-2.12519 4.3255647,-5.22003 5.7020685,-6.87745 l 2.5027357,-3.0135 -2.5905576,-2.59609 -2.5905568,-2.59607 -1.9215015,-5.27476 c -1.3443524,-3.6904 -1.8992027,-5.36361 -1.8472391,-5.57064 0.04084,-0.16273 1.2893535,-2.13796 2.7744666,-4.38938 l 2.7002028,-4.09351 2.8666166,-2.528806 c 1.576641,-1.390841 2.977116,-2.587935 3.112169,-2.660214 0.278876,-0.149246 10.365325,0.719971 11.07592,0.954493 0.371013,0.122446 1.489284,1.189119 3.403433,3.246377 l 0.674798,0.72525 1.291363,-1.894236 c 0.710255,-1.041836 1.891498,-2.780196 2.624989,-3.863046 0.733492,-1.082852 1.784985,-2.633289 2.336665,-3.445423 0.551678,-0.81213 1.703113,-2.507234 2.558759,-3.766899 1.631421,-2.401747 2.003727,-2.79595 2.426764,-2.569549 0.134665,0.07206 0.244848,0.09729 0.244848,0.05608 0,-0.04121 0.2907,0.08973 0.646012,0.290888 4.019317,2.275663 14.284132,8.064897 15.933415,8.986234 1.736574,0.970106 2.143254,1.248812 2.244013,1.537857 0.111292,0.319254 0.0068,0.56643 -1.089557,2.585092 -1.666449,3.067452 -7.198714,13.737342 -7.12271,13.737342 0.09526,0 4.499306,0.98461 4.828828,1.07959 0.399812,0.11522 0.345125,-0.0189 2.219053,5.44211 0.383191,1.11668 1.190294,3.46119 1.793568,5.21002 1.0766,3.12096 1.227759,3.79039 0.966253,4.27903 -0.07183,0.13423 -2.323309,3.35606 -5.00325,7.15962 -2.679946,3.80355 -4.877615,7.00579 -4.883708,7.11609 -0.0061,0.11034 0.791829,1.02629 1.773171,2.03556 0.981324,1.00927 3.527103,3.62438 5.657279,5.8114 3.781155,3.88202 3.873881,3.98905 3.907967,4.51166 l 0.03493,0.5353 -8.522377,9.56475 c -4.687305,5.26062 -8.577749,9.57529 -8.645416,9.58817 -0.06767,0.0129 -0.212686,-1.2e-4 -0.322234,-0.0291 z M 45.299577,165.6336 c 0.233643,-12.8375 0.397372,-24.14108 0.350359,-24.18809 -0.04669,-0.0467 -2.002203,1.73744 -10.057749,9.1759 -2.528594,2.33488 -4.792213,4.41577 -5.030283,4.6242 l -0.43285,0.37895 1.530175,1.76739 c 0.84159,0.97204 2.080954,2.40733 2.754141,3.18952 0.67319,0.78217 1.725279,1.99954 2.337969,2.70525 0.612691,0.70573 2.214446,2.56071 3.559445,4.12221 1.344999,1.5615 2.978494,3.45738 3.629994,4.21309 0.65151,0.75571 1.193776,1.36482 1.205052,1.35356 0.01098,-0.011 0.08047,-3.31514 0.153747,-7.34198 z m 2.66187,5.53729 c 0.805074,-0.91364 1.494941,-1.68886 1.533054,-1.7227 0.03816,-0.0339 2.734781,-3.05918 5.992614,-6.72299 l 5.923333,-6.66146 -7.219678,-7.43671 -7.219672,-7.43671 -0.08072,0.74715 c -0.08352,0.7733 -0.273547,9.29107 -0.47638,21.35818 -0.144197,8.57831 -0.146478,9.80104 -0.01804,9.65333 0.05596,-0.0643 0.760375,-0.86443 1.565449,-1.77809 z M 21.950291,151.72885 c 2.197232,-2.74095 5.168069,-6.44211 6.601865,-8.22477 1.433795,-1.78268 2.605796,-3.27774 2.604442,-3.32238 -0.0024,-0.0927 -5.660687,-3.08749 -6.001,-3.17647 -0.129957,-0.034 -1.859942,0.74167 -4.146361,1.85909 -2.157863,1.05457 -3.942176,1.9362 -3.965147,1.95916 -0.02292,0.023 0.09803,3.63344 0.268805,8.02324 0.170814,4.38981 0.310563,8.03649 0.310563,8.10376 0,0.17727 -0.03268,0.21668 4.326833,-5.22163 z M 16.085552,148.566 c -0.177801,-4.24992 -0.361333,-7.76367 -0.407847,-7.80833 -0.04657,-0.0446 -1.981646,-0.61227 -4.300265,-1.26137 l -4.2156875,-1.18018 -3.1058292,2.09911 c -1.7082218,1.15451 -3.10585482,2.1398 -3.10585482,2.18953 0,0.076 2.30979182,2.18594 7.62916702,6.96892 2.2290535,2.00431 5.1064605,4.58279 6.0291405,5.4028 0.541218,0.48103 1.150323,1.04071 1.353545,1.24374 0.216305,0.2161 0.385548,0.30774 0.408201,0.22103 0.02134,-0.0815 -0.106805,-3.62532 -0.28457,-7.87525 z m 37.143323,-10.00358 c 1.452761,-2.06417 2.629408,-3.76535 2.614782,-3.78041 -0.01463,-0.0152 -1.906193,0.57129 -4.203478,1.30295 -8.275637,2.63571 -12.475829,4.00207 -12.433228,4.04468 0.02389,0.0239 0.9927,0.32006 2.152986,0.65823 l 2.109594,0.61483 1.257506,-1.12866 c 1.484527,-1.33247 1.692664,-1.45118 2.085195,-1.1893 0.155051,0.10338 1.00176,0.93092 1.881574,1.83886 1.179401,1.21708 1.638286,1.61677 1.746686,1.52133 0.08084,-0.0712 1.33563,-1.81833 2.788383,-3.88251 z m -48.6447669,0.15383 2.1305025,-1.44586 2.1378929,-3.63001 c 1.1758295,-1.99649 2.2224075,-3.7961 2.3257255,-3.99915 l 0.187861,-0.36915 -0.309345,0.37907 c -0.670018,0.82105 -7.6534416,9.25772 -8.1656548,9.86492 -0.2997241,0.3553 -0.5207837,0.64601 -0.4912295,0.64601 0.029508,0 1.012465,-0.65062 2.1842474,-1.44583 z M 20.072353,137.9318 c 2.003178,-1.02363 3.681198,-1.89606 3.728968,-1.93877 0.11912,-0.10648 -3.477806,-4.77806 -6.240812,-8.10527 -2.033403,-2.44864 -2.517537,-2.95637 -2.522633,-2.64559 -7.67e-4,0.0507 -1.597783,2.80556 -3.54879,6.12178 -1.9828055,3.37028 -3.4881207,6.05403 -3.4131507,6.08516 0.1810562,0.0751 8.1029867,2.31557 8.2433687,2.33135 0.06096,0.007 1.749882,-0.82504 3.753049,-1.84866 z m 16.131794,1.31808 c 0,-0.0279 -0.644671,-1.14925 -1.432613,-2.49178 -1.346047,-2.29345 -3.709768,-5.98488 -3.572214,-5.57873 0.03438,0.10157 0.695161,1.81807 1.468361,3.81458 l 1.405863,3.63001 0.973011,0.32789 c 1.027144,0.34615 1.157592,0.37972 1.157592,0.29803 z m -4.47474,-2.85446 c -1.38349,-3.59689 -2.078794,-5.31999 -3.266585,-8.09515 -0.547412,-1.27895 -0.995286,-2.41814 -0.995286,-2.53151 0,-0.11339 0.342141,-0.67278 0.760315,-1.2431 0.418184,-0.57033 2.612075,-3.58412 4.875305,-6.6973 2.26324,-3.11319 4.285282,-5.87822 4.493416,-6.14451 0.208137,-0.26632 0.326062,-0.5042 0.262062,-0.52867 -0.06401,-0.0245 -1.306872,-0.78265 -2.761956,-1.68488 -1.455058,-0.90222 -2.656078,-1.63211 -2.668882,-1.62197 -0.01281,0.01 0.308748,0.95857 0.714584,2.10755 0.405821,1.149 0.766837,2.33826 0.802243,2.64281 0.0606,0.52124 -0.05474,0.79555 -1.966819,4.67593 l -2.031199,4.12221 -1.024204,0.9918 c -0.563298,0.54551 -1.826708,1.73602 -2.807569,2.6456 -0.980838,0.90958 -2.005252,1.8659 -2.276434,2.12513 l -0.49307,0.47134 -1.641127,-0.0615 -1.641139,-0.0615 0.902832,0.83353 c 0.496557,0.45843 3.337398,3.08143 6.312976,5.82888 2.975594,2.74745 5.427353,4.97816 5.448361,4.95715 0.02098,-0.0209 -0.428014,-1.25027 -0.997824,-2.7317 z m 14.105962,0.20557 c 4.008541,-1.21415 7.910782,-2.39083 8.671634,-2.61483 0.76086,-0.22401 1.36996,-0.4433 1.353561,-0.48731 -0.01646,-0.044 -1.254673,-1.06841 -2.75172,-2.27644 -9.3917,-7.57859 -11.318213,-9.11965 -11.423568,-9.13804 -0.12469,-0.0217 -0.264829,0.67195 -2.101741,10.40377 -1.242291,6.58154 -1.196825,6.32039 -1.100455,6.32039 0.03523,0 3.34374,-0.99341 7.352289,-2.20754 z m -6.947003,-6.49832 c 0.896879,-4.58518 1.628873,-8.3729 1.626629,-8.41715 -0.0049,-0.0919 0.23686,-0.18052 -5.972043,2.19528 -2.571758,0.98408 -4.723159,1.83295 -4.780888,1.88637 -0.09828,0.091 2.760969,5.0904 5.45293,9.53439 1.696297,2.80033 1.904029,3.12956 1.977342,3.13391 0.03597,0.002 0.799135,-3.74761 1.69603,-8.3328 z m -10.504112,7.00382 c -0.06425,-0.0563 -1.550892,-1.42679 -3.303541,-3.04552 -1.752662,-1.61872 -3.386169,-3.10924 -3.630003,-3.31228 l -0.443351,-0.36915 0.390009,0.4922 c 0.2145,0.27072 1.221881,1.51661 2.238625,2.76864 l 1.848616,2.27645 1.391377,0.63719 c 1.355889,0.62092 1.75219,0.76608 1.508268,0.55247 z m 28.028662,-5.28102 c -0.120129,-2.12199 -0.643692,-14.37054 -0.643692,-15.05887 0,-0.46505 -0.02803,-0.84553 -0.06228,-0.84553 -0.12795,0 -13.291931,4.94917 -13.369049,5.02626 -0.06913,0.0691 13.879147,11.44765 14.046628,11.45866 0.03387,0.002 0.0466,-0.25901 0.02842,-0.58052 z m 3.626032,-2.94285 c 0.159481,-0.24319 0.04607,-0.63999 -1.301517,-4.55287 -0.811919,-2.35757 -1.514012,-4.44134 -1.560216,-4.6306 -0.04615,-0.18926 -0.106262,-0.32184 -0.133493,-0.29461 -0.02728,0.0272 0.09016,2.8861 0.260874,6.35302 0.170717,3.46693 0.310391,6.36041 0.310391,6.42995 0,0.10359 1.781995,-2.32598 2.423961,-3.30489 z m -37.030861,-3.57893 c 0.456604,-1.20593 1.170709,-3.48355 1.110943,-3.54332 -0.02487,-0.0249 -2.046243,-0.7368 -4.491918,-1.58201 l -4.446671,-1.53675 -3.206453,1.20142 c -1.763563,0.6608 -3.2440305,1.23899 -3.2899225,1.28489 -0.08937,0.0894 3.8843115,4.14497 4.0611855,4.145 0.05792,0 0.223181,-0.15227 0.36721,-0.33839 0.609593,-0.78769 1.361372,-1.50736 1.574617,-1.50736 0.126093,0 0.229276,-0.0489 0.229276,-0.10852 0,-0.31282 0.967829,0.30498 1.966359,1.25522 0.622285,0.59217 1.255689,1.15811 1.407558,1.25761 0.250869,0.16438 2.010323,0.35434 3.783016,0.40841 l 0.573711,0.0175 z m 5.102059,-4.09143 c 0.646353,-0.60915 0.822788,-0.89813 1.765427,-2.8917 0.576016,-1.21821 0.941554,-2.10417 0.812329,-1.96882 -0.129252,0.13536 -1.383747,1.51235 -2.787783,3.05998 -2.514988,2.77221 -2.559868,2.83127 -3.030821,3.98874 -0.262916,0.64616 -0.478038,1.19962 -0.478038,1.2299 0,0.0488 1.628337,-1.4479 3.718886,-3.4181 z m 7.35317,1.1147 c 2.807237,-1.0785 5.120907,-2.0114 5.141476,-2.07309 0.02913,-0.0876 -1.743641,-6.50164 -2.01181,-7.27879 -0.03853,-0.1118 -0.366101,0.24548 -0.886629,0.96727 -0.453983,0.62954 -2.306659,3.19205 -4.117038,5.69451 -3.01479,4.16728 -3.354822,4.65231 -3.260858,4.65134 0.01696,-1.2e-4 2.327619,-0.88272 5.134859,-1.96124 z m -6.868073,-5.74216 c 2.120712,-2.27439 3.869338,-4.1709 3.885822,-4.21449 0.02281,-0.0602 -3.958037,-5.27888 -5.940123,-7.78732 l -0.249809,-0.31614 -4.710746,1.31891 c -2.59091,0.72541 -4.754662,1.36801 -4.80832,1.42803 -0.09937,0.1112 -1.182207,10.61559 -1.100591,10.67648 0.121558,0.0907 8.686414,3.00641 8.863093,3.01724 0.119485,0.007 1.810442,-1.70941 4.060674,-4.12271 z m -17.325754,2.03667 c 1.81616,-0.76465 3.31805,-1.44972 3.337545,-1.52237 0.01951,-0.0726 0.23919,-2.37471 0.488183,-5.11566 0.249003,-2.74096 0.471612,-5.04396 0.494692,-5.11776 0.02305,-0.0738 0.0049,-0.18792 -0.0389,-0.25353 -0.116681,-0.172 -5.7596895,-3.73447 -5.9155195,-3.73447 -0.1186321,0 -2.1374532,2.95798 -4.4290769,6.4896 l -0.8974071,1.38298 0.9849842,2.6777 c 0.5417418,1.47273 1.3087498,3.57773 1.7044527,4.6778 0.3957029,1.10007 0.7756049,1.97894 0.8442241,1.95306 0.06864,-0.026 1.610706,-0.67268 3.4268535,-1.43735 z m 36.569853,-1.05765 c 3.280878,-1.26218 5.943507,-2.3166 5.916956,-2.34314 -0.06979,-0.0697 -14.159913,-3.08796 -14.211377,-3.04417 -0.08376,0.0713 2.118776,7.68218 2.223191,7.68218 0.05828,0 2.790341,-1.03269 6.07123,-2.29487 z m 3.039025,-5.9803 c 0.386654,-0.76138 1.274572,-2.49178 1.973149,-3.84533 0.698571,-1.35357 1.981123,-3.84534 2.850107,-5.53728 0.868979,-1.69196 1.765726,-3.420601 1.99277,-3.841434 0.227034,-0.420844 0.412801,-0.815824 0.412801,-0.877739 0,-0.111924 -2.166427,-1.371857 -2.3588,-1.371857 -0.05532,0 -1.467782,0.863925 -3.13875,1.919819 -1.670973,1.055905 -3.104708,1.945362 -3.186091,1.976601 -0.143113,0.055 -0.228058,2.7425 -0.329766,10.4327 l -0.03084,2.33167 0.307626,0.0863 c 0.739404,0.20747 0.767958,0.18334 1.507791,-1.27348 z m -2.692043,-3.26084 c 0.04108,-2.35181 0.09961,-5.14814 0.13003,-6.21407 l 0.05524,-1.93805 -0.331094,-7.9e-4 c -0.182118,-2.7e-4 -1.798481,-0.081 -3.591952,-0.179074 -1.79347,-0.09803 -3.649133,-0.192347 -4.123708,-0.20955 l -0.862841,-0.03133 -2.854912,2.181724 -2.854886,2.18175 4.354851,3.49568 c 2.395162,1.92262 4.490088,3.5843 4.655368,3.69259 0.217717,0.14264 4.352729,1.1512 5.271082,1.28564 0.04292,0.006 0.11168,-1.9128 0.152818,-4.26458 z m -7.556746,2.50846 c -0.09912,-0.0923 -1.854028,-1.50435 -3.899831,-3.1378 l -3.719656,-2.9699 h -0.802462 c -0.441365,0 -0.802476,0.0472 -0.802476,0.10477 0,0.0576 0.06011,0.27703 0.133519,0.48769 0.113877,0.32666 0.652412,0.70235 3.660762,2.55384 1.939988,1.19396 3.727201,2.32756 3.971586,2.5191 0.409993,0.32134 1.020633,0.57218 1.458558,0.59915 0.15821,0.01 0.15821,-0.01 0,-0.15679 z m -9.784347,-3.28234 c -0.234299,-0.6403 -0.626539,-1.75147 -0.871654,-2.46928 l -0.445667,-1.30512 -1.460865,-1.55469 c -0.985798,-1.04912 -1.460873,-1.47765 -1.460873,-1.31778 0,0.39723 0.366575,2.00673 0.532828,2.33952 0.19942,0.39915 4.035145,5.56859 4.090681,5.51306 0.02281,-0.0229 -0.150162,-0.56541 -0.38445,-1.20571 z m -9.620556,-3.14801 c 2.519915,-0.71888 4.602258,-1.32548 4.6274,-1.34802 0.132518,-0.11875 -0.737503,-3.796777 -0.950285,-4.017384 -0.07523,-0.07791 -8.980956,-0.955371 -9.706621,-0.956334 -0.179642,-2.43e-4 -1.040434,0.6712 -2.484178,1.937698 -1.21509,1.06594 -2.211144,1.96573 -2.213424,1.99958 -0.0074,0.096 5.814409,3.67665 5.989638,3.68452 0.08572,0.003 2.217544,-0.58118 4.73747,-1.30006 z m 14.401272,-2.9038 3.102002,-2.365092 0.518189,-4.919562 c 0.284996,-2.705748 0.502592,-4.935143 0.483534,-4.954201 -0.08181,-0.08181 -9.062815,13.462435 -9.062815,13.667525 0,0.0247 0.08376,0.24559 0.186227,0.49073 0.184848,0.44241 0.191725,0.4457 0.928544,0.4457 h 0.742318 z m 13.006335,-2.306971 c 0,-0.0656 0.07816,-0.08912 0.173789,-0.05255 0.200869,0.07706 6.006592,-3.539842 5.878711,-3.662386 -0.09352,-0.08961 -13.80131,-7.845568 -13.81038,-7.81399 -0.03816,0.132765 -1.189196,11.103462 -1.167529,11.12765 0.02622,0.02938 7.255057,0.459335 8.463965,0.503531 0.253796,0.0097 0.461444,-0.0367 0.461444,-0.102291 z m 27.686439,58.970651 c -0.150606,-0.0575 -6.54993,-4.07001 -14.927201,-9.35974 -0.799227,-0.50466 -1.540952,-1.0516 -1.648275,-1.21541 -0.176718,-0.26968 -0.181584,-0.97433 -0.0516,-7.45988 0.07896,-3.93914 0.17436,-7.45535 0.212,-7.81381 0.05555,-0.52894 0.141967,-0.71837 0.458766,-1.00538 0.411014,-0.37238 9.068858,-6.97633 9.616194,-7.33495 0.175051,-0.11473 0.294346,-0.23248 0.265105,-0.26171 -0.02925,-0.0293 -1.630625,0.0623 -3.558638,0.2034 -3.628546,0.26558 -4.014674,0.2471 -4.247444,-0.2033 -0.172424,-0.33362 -0.164936,-0.27684 -1.627148,-12.33474 -0.750477,-6.18868 -1.332441,-11.379888 -1.293259,-11.53601 0.03917,-0.156123 0.148635,-0.283861 0.243221,-0.283861 0.09459,0 0.190434,-0.05365 0.212992,-0.119243 0.04335,-0.12592 0.598236,-0.179128 14.172406,-1.358823 5.928326,-0.515212 8.751663,-0.715727 9.102064,-0.64644 0.42387,0.08376 0.524018,0.161049 0.604932,0.466455 0.05335,0.201295 0.709142,5.593682 1.457347,11.983072 1.310293,11.18947 1.352153,11.62467 1.137234,11.82304 -0.174786,0.16133 -1.036269,0.29277 -3.976179,0.60664 -2.064181,0.22038 -3.896905,0.43728 -4.072716,0.48204 -0.273825,0.0697 0.602232,0.6082 6.109888,3.75559 6.178241,3.5306 6.431296,3.68933 6.47423,4.06067 0.06093,0.52701 -0.250356,14.80653 -0.333613,15.30353 -0.05706,0.3407 -1.020061,1.24477 -6.782877,6.36788 -6.878172,6.11468 -6.896838,6.1292 -7.547456,5.88096 z m 0.09114,-14.653 -0.02963,-2.2532 -7.506105,-4.21919 c -4.128355,-2.32055 -7.537773,-4.20268 -7.576495,-4.18248 -0.03872,0.0201 -0.08218,0.91166 -0.09659,1.98103 -0.01439,1.06938 -0.08051,4.20913 -0.146886,6.97722 -0.06637,2.76809 -0.105965,5.04649 -0.08798,5.06314 0.01805,0.0167 1.306277,0.83224 2.862866,1.81245 1.556594,0.98019 4.989711,3.14417 7.629152,4.8088 l 4.79898,3.02661 0.09114,-5.3806 c 0.05009,-2.95933 0.07781,-6.39452 0.06154,-7.63378 z m 6.835352,7.40537 c 3.262773,-2.88508 5.969047,-5.36303 6.013945,-5.50653 0.07947,-0.25395 0.38972,-13.24311 0.318034,-13.31478 -0.01979,-0.0198 -2.789539,2.04891 -6.155018,4.59713 l -6.11905,4.6331 -2.65e-4,5.11115 c -2.43e-4,2.81113 -0.03668,6.14938 -0.08098,7.41834 -0.04433,1.26896 -0.04198,2.3072 0.0053,2.3072 0.04721,0 2.755408,-2.36051 6.018181,-5.24561 z m -0.08067,-15.20666 c 5.582465,-4.22289 6.192986,-4.71826 5.994186,-4.86362 -0.12174,-0.089 -3.482663,-2.02414 -7.468703,-4.30026 -6.792021,-3.87839 -7.264408,-4.12753 -7.518797,-3.96527 -0.746969,0.47643 -12.364781,9.38917 -12.31011,9.44384 0.124759,0.12475 14.889543,8.38707 14.987728,8.38707 0.05509,0 2.897158,-2.11579 6.315696,-4.70176 z M 73.139594,121.55014 c 0.428797,-0.30302 0.848844,-0.52608 0.933439,-0.49571 0.08459,0.0303 0.153813,-0.002 0.153813,-0.0725 0,-0.14881 0.720598,0.0844 1.300752,0.42102 0.367875,0.21345 0.494171,0.20606 4.774793,-0.27939 2.41831,-0.27423 4.425916,-0.52762 4.461349,-0.56304 0.03547,-0.0354 -1.606884,-1.97922 -3.649576,-4.31955 -2.439807,-2.79529 -3.765203,-4.22388 -3.863252,-4.164 -0.20918,0.12771 -12.233693,10.35832 -12.299204,10.46432 -0.02939,0.0475 1.625396,-0.0319 3.67738,-0.17676 l 3.730882,-0.26336 z m -2.48122,-5.12997 c 3.2147,-2.72694 5.858118,-4.99304 5.87426,-5.0358 0.02365,-0.0628 -15.500699,-10.10668 -15.547247,-10.05875 -0.0076,0.007 0.557286,4.6929 1.2549,10.41169 0.697608,5.71878 1.271254,10.47374 1.274763,10.56656 0.0037,0.0982 0.276579,-0.0601 0.652385,-0.37845 0.355317,-0.30097 3.276238,-2.77834 6.490939,-5.50525 z m 13.259712,-6.34404 c -0.606911,-5.00818 -1.127778,-9.18581 -1.157483,-9.28365 -0.0297,-0.0979 -1.106241,2.19241 -2.392317,5.08941 -1.286077,2.89702 -2.321899,5.31602 -2.301833,5.37555 0.04273,0.12685 6.902013,7.99396 6.933689,7.95249 0.01183,-0.0155 -0.475144,-4.12564 -1.082056,-9.1338 z m -4.067826,-5.32268 c 1.749354,-3.93969 2.555957,-5.886892 2.448637,-5.911205 -0.130035,-0.02938 -19.598317,1.619075 -20.43866,1.730695 -0.182692,0.0243 -0.04001,0.16537 0.55373,0.54764 0.439907,0.28322 3.928396,2.53359 7.752197,5.00082 3.823811,2.46723 6.980063,4.49063 7.013906,4.49643 0.03387,0.006 1.235426,-2.63317 2.67019,-5.86438 z"
         id="path1433" />
    </clipPath>
    <clipPath
       clipPathUnits="userSpaceOnUse"
       id="clipPath1528">
      <path
         d="m -95.430544,174.65376 h 79.736087 V 24.917668 h -79.736087 z"
         style="fill:#000000;stroke:#000000;stroke-width:0.263914"
         id="path1530" />
    </clipPath>
  </defs>
  <metadata
     id="metadata5">
    <rdf:RDF>
      <cc:Work
         rdf:about="">
        <dc:format>image/svg+xml</dc:format>
        <dc:type
           rdf:resource="http://purl.org/dc/dcmitype/StillImage" />
        <dc:title></dc:title>
      </cc:Work>
    </rdf:RDF>
  </metadata>
  <g
     id="layer1">
    <g
       id="g142"
       transform="matrix(0.26394819,0,0,0.26417235,169.67852,-130.80511)">
      <path
         d="m -529.13386,1689.4488 v -491.3386 h 264.56693 v 491.3386 z"
         style="fill:none;stroke:#000000"
         id="path138" />
      <path
         d="m -604.72441,1765.0394 h 415.74803 v -642.5197 h -415.74803 z"
         style="fill:none;stroke:#000000"
         id="path140" />
    </g>
    <path
       style="fill:#000000;stroke-width:0.0462726"
       d="m 45.67414,270.81137 c -0.0642,-0.045 -0.10284,-0.12022 -0.10284,-0.20013 0,-0.2736 0.19729,-1.21725 0.39295,-1.87952 0.11278,-0.38175 0.24797,-0.8919 0.30042,-1.13367 0.0975,-0.44942 0.14355,-0.61943 0.37614,-1.38817 0.0731,-0.24179 0.22647,-0.75194 0.34072,-1.13369 0.1588,-0.53061 0.23577,-0.7186 0.32678,-0.7982 0.20843,-0.18226 0.52744,-0.10066 0.62665,0.1603 0.0512,0.13478 0.0136,0.30625 -0.35389,1.60963 -0.2709,0.96089 -0.37809,1.28628 -0.65872,1.99958 -0.10226,0.25992 -0.25027,0.70306 -0.32891,0.98476 -0.18329,0.65661 -0.59021,1.71832 -0.6873,1.7933 -0.0952,0.0735 -0.10784,0.0728 -0.232,-0.0142 z m 19.72057,-0.69551 c -0.2265,-0.14221 -0.65326,-0.38164 -0.94836,-0.53209 -0.2951,-0.15045 -0.76367,-0.42063 -1.04127,-0.60039 -0.2776,-0.17976 -0.68649,-0.4227 -0.90865,-0.53987 -0.22216,-0.11717 -0.69127,-0.43633 -1.04247,-0.70924 -0.68457,-0.53198 -2.14052,-1.38427 -2.94949,-1.7266 -0.22905,-0.0969 -0.5622,-0.24121 -0.74036,-0.32064 -0.58125,-0.25915 -2.15735,-1.14624 -2.96144,-1.6668 -1.10538,-0.71562 -1.63021,-1.04039 -2.06976,-1.2808 -0.2094,-0.11452 -0.63562,-0.39563 -0.94715,-0.62468 -0.50535,-0.37155 -1.08246,-0.7308 -1.86224,-1.15926 -0.14141,-0.0777 -0.43409,-0.2122 -0.65042,-0.29892 -0.21632,-0.0867 -0.44112,-0.20534 -0.49953,-0.26361 -0.0584,-0.0582 -0.13328,-0.10598 -0.16635,-0.10598 -0.0331,0 -0.0973,-0.041 -0.14271,-0.0912 -0.0716,-0.0791 -0.0798,-0.15768 -0.0617,-0.58997 0.0115,-0.2743 0.0447,-0.5428 0.0737,-0.59665 0.18596,-0.34462 1.37457,-0.98016 3.24902,-1.73721 0.44537,-0.17987 0.89306,-0.36865 0.99486,-0.41951 0.29619,-0.14797 1.15165,-0.67198 1.82777,-1.11959 0.79313,-0.52507 1.24149,-0.76115 1.8509,-0.97457 0.26722,-0.0936 0.81097,-0.33404 1.20832,-0.53435 0.39736,-0.20031 0.98039,-0.46643 1.29563,-0.59137 0.57387,-0.22745 0.94941,-0.42166 2.03075,-1.05022 0.31813,-0.18492 0.85285,-0.47241 1.18827,-0.63886 0.33541,-0.16646 0.79351,-0.42532 1.01799,-0.57525 0.88453,-0.59078 1.7205,-1.01293 2.72177,-1.37444 0.71806,-0.25925 2.74437,-1.26774 3.30398,-1.64437 0.2188,-0.14726 0.82468,-0.4765 1.34641,-0.73167 0.76483,-0.37405 1.04526,-0.53867 1.44768,-0.84977 0.88918,-0.68744 1.01793,-0.76243 1.65244,-0.96247 0.48786,-0.15381 1.14516,-0.45073 1.80477,-0.81526 0.0636,-0.0351 0.33432,-0.16759 0.60154,-0.29428 0.75164,-0.35634 1.4913,-0.75614 1.7888,-0.96688 0.41099,-0.29113 0.80977,-0.48349 1.4964,-0.72183 0.34349,-0.11922 0.86405,-0.3435 1.15682,-0.49839 1.09621,-0.57997 1.9507,-1.01658 1.9595,-1.00122 0.0727,0.12685 0.11197,0.34316 0.0749,0.41233 -0.0246,0.0458 -0.045,0.47511 -0.0456,0.95397 -4.9e-4,0.47886 -0.0213,1.13093 -0.046,1.44905 -0.0247,0.31813 -0.0473,1.52584 -0.0502,2.68382 -0.003,1.15796 -0.0258,2.36568 -0.051,2.6838 -0.0252,0.31812 -0.0521,1.23432 -0.0599,2.03599 -0.008,0.80167 -0.0386,1.80116 -0.0684,2.22108 -0.0309,0.43381 -0.0514,1.61269 -0.0477,2.73008 0.0128,3.75294 0.0211,3.45513 -0.12031,4.31722 -0.1003,0.61163 -0.1514,0.81435 -0.22874,0.90742 -0.0548,0.0659 -0.12204,0.16258 -0.14947,0.21482 -0.0733,0.13954 -0.43322,0.31891 -1.10447,0.55042 -0.32704,0.11279 -0.79243,0.31238 -1.0342,0.44355 -1.03464,0.56128 -1.39706,0.74709 -1.93887,0.99407 -0.65475,0.29847 -1.62342,0.86901 -2.70624,1.59396 -0.4101,0.27457 -0.88099,0.56715 -1.04642,0.65017 -0.16542,0.083 -0.56105,0.31216 -0.87917,0.50917 -0.7347,0.455 -0.90295,0.53929 -1.66581,0.83461 -1.10465,0.42763 -2.34066,1.05575 -3.57823,1.81838 -0.70544,0.43473 -1.16403,0.67779 -1.27879,0.67779 -0.0565,0 -0.15563,0.0416 -0.22034,0.0925 -0.18543,0.14587 -0.33412,0.11424 -0.78049,-0.16599 z m 1.39254,-2.00614 c 0.25451,-0.31724 0.64092,-0.76517 0.85872,-0.99539 0.21779,-0.23023 0.6014,-0.66847 0.85247,-0.97387 0.25109,-0.3054 0.6351,-0.75112 0.85338,-0.99048 0.3917,-0.42954 0.62463,-0.71769 1.66937,-2.06509 0.29267,-0.37746 0.71954,-0.90529 0.94859,-1.17297 0.22905,-0.26768 0.53985,-0.63348 0.69066,-0.81288 0.15081,-0.1794 0.4848,-0.55524 0.74218,-0.83519 0.25739,-0.27995 0.56073,-0.62352 0.67411,-0.7635 0.11337,-0.13997 0.38406,-0.46321 0.60153,-0.7183 0.21746,-0.2551 0.48829,-0.60824 0.60181,-0.78476 0.11353,-0.17652 0.31491,-0.48838 0.44751,-0.69301 l 0.24109,-0.37205 -0.35677,-0.0538 c -0.19622,-0.0297 -0.51294,-0.0878 -0.70382,-0.12922 -0.28892,-0.0627 -0.77324,-0.079 -2.89203,-0.0973 -3.22615,-0.0278 -4.60632,-0.0785 -5.06684,-0.18624 -0.37485,-0.0877 -1.1716,-0.1077 -1.82777,-0.046 -0.24347,0.0229 -0.44145,0.0163 -0.5784,-0.0192 -0.6872,-0.17862 -0.99669,-0.20558 -1.69942,-0.14811 -0.37599,0.0307 -0.82273,0.0558 -0.99275,0.0555 -0.4208,-5e-4 -1.69433,-0.16971 -1.94209,-0.2581 -0.2118,-0.0756 -0.48973,-0.0674 -1.19608,0.0349 -0.19087,0.0277 -0.56925,0.0631 -0.84083,0.0787 l -0.4938,0.0284 0.18412,0.30077 c 0.10126,0.16542 0.29931,0.52799 0.4401,0.8057 0.33851,0.66773 0.61382,1.10596 1.14533,1.82318 0.50626,0.68313 0.72762,1.03593 1.01512,1.61791 0.29151,0.59012 0.59838,1.02511 1.16863,1.6566 0.62694,0.69427 0.90944,1.07928 1.21677,1.65831 0.32464,0.61162 0.54706,0.93192 0.9963,1.43474 1.07531,1.20357 1.42963,1.65675 1.75737,2.24779 0.11996,0.21632 0.35496,0.57935 0.52221,0.80674 l 0.30412,0.41342 0.0982,-0.13526 c 0.054,-0.0744 0.30642,-0.39481 0.56091,-0.71205 z m 0.67095,-4.1672 c -0.0509,-0.0509 -0.0932,-0.14981 -0.094,-0.2198 -0.002,-0.23519 -0.0382,-0.77047 -0.0946,-1.42593 -0.0561,-0.65035 -0.0363,-1.16093 0.0956,-2.47253 0.0243,-0.24177 0.0448,-0.72267 0.0455,-1.06867 0.002,-0.70254 0.0334,-0.78223 0.31461,-0.78223 0.2172,0 0.28816,0.13633 0.28834,0.554 9e-5,0.19157 0.0346,0.67107 0.0767,1.06554 0.0924,0.86549 0.11163,2.75841 0.0307,3.01928 -0.0296,0.0954 -0.0392,0.17352 -0.0213,0.17352 0.0179,0 0.14566,-0.11452 0.28389,-0.25449 0.28906,-0.2927 0.46514,-0.33327 0.63975,-0.1474 0.23568,0.25086 0.10586,0.46858 -0.69981,1.17355 -0.57886,0.50652 -0.69315,0.55739 -0.86539,0.38516 z m -3.85865,0.008 c -0.0129,-0.0209 -0.0217,-0.34885 -0.0195,-0.72879 0.002,-0.40871 -0.027,-0.91376 -0.0718,-1.23685 -0.10799,-0.77903 -0.0967,-1.51139 0.0375,-2.42841 0.0623,-0.42548 0.12594,-0.89853 0.14153,-1.05124 0.043,-0.42108 0.13857,-0.6439 0.31759,-0.74031 0.28195,-0.15184 0.62453,0.006 0.7045,0.3246 0.014,0.0558 -0.0173,0.33869 -0.0695,0.62873 -0.0522,0.29004 -0.11656,0.77722 -0.14294,1.08262 -0.0264,0.3054 -0.0597,0.63257 -0.0741,0.72706 l -0.0261,0.17179 0.24671,-0.0261 c 0.13569,-0.0144 0.44779,-0.0657 0.69356,-0.11395 0.65212,-0.12821 0.83334,-0.1189 1.029,0.0529 0.0882,0.0774 0.17335,0.20009 0.18927,0.2726 0.0373,0.17 -0.0644,0.56674 -0.34515,1.3452 -0.12393,0.34368 -0.26035,0.81219 -0.30314,1.04113 -0.0938,0.5015 -0.13044,0.57821 -0.27647,0.57821 -0.19629,0 -0.21623,-0.13064 -0.0819,-0.53603 0.10716,-0.32329 0.12369,-0.45888 0.14075,-1.15522 l 0.0193,-0.78893 -0.36302,0.0423 c -0.19966,0.0233 -0.5296,0.066 -0.73319,0.0949 l -0.37019,0.0525 -0.12686,0.48586 c -0.082,0.31385 -0.14523,0.7234 -0.17871,1.1568 -0.0285,0.36903 -0.0728,0.69699 -0.0986,0.7288 -0.0527,0.0652 -0.2028,0.0777 -0.23855,0.0199 z m 0.84503,4.34094 c -0.47762,-0.63385 -0.95607,-1.37862 -1.16933,-1.82022 -0.11251,-0.23297 -0.31982,-0.66304 -0.46069,-0.95571 -0.14734,-0.30612 -0.36635,-0.66872 -0.51562,-0.85369 -0.3227,-0.3999 -0.95941,-1.36136 -1.22727,-1.85326 -0.45114,-0.82845 -0.80319,-1.31612 -1.44927,-2.00757 -0.45883,-0.49104 -2.16814,-2.73039 -2.60006,-3.40631 -0.40152,-0.62836 -0.80799,-1.17997 -0.86935,-1.1798 -0.1502,5e-4 -1.86468,0.90411 -2.32204,1.22392 -0.53582,0.37466 -2.51892,1.69514 -2.80521,1.86788 -0.0922,0.0556 -0.39415,0.18609 -0.67096,0.28989 -0.50703,0.19012 -0.94286,0.40155 -0.94286,0.4574 0,0.0166 0.18219,0.13103 0.40488,0.25428 0.22269,0.12324 0.65476,0.38224 0.96016,0.57556 0.62458,0.39536 0.62387,0.39499 1.21991,0.64978 0.23831,0.10186 0.64435,0.30735 0.90232,0.45663 0.25797,0.14929 0.88453,0.48539 1.39236,0.7469 0.50783,0.26152 1.04922,0.54385 1.20309,0.6274 0.15386,0.0836 0.46749,0.2533 0.69695,0.37722 0.47086,0.25428 1.22491,0.76213 2.01211,1.35514 0.91986,0.69294 0.92663,0.69696 2.79949,1.66748 0.33085,0.17144 0.78934,0.37786 1.01889,0.4587 0.22954,0.0809 0.58352,0.23989 0.78663,0.35342 0.20311,0.11352 0.62957,0.33971 0.9477,0.50263 0.31812,0.16293 0.66169,0.35931 0.76349,0.4364 0.1018,0.0771 0.18933,0.14161 0.19451,0.14336 0.005,0.002 -0.11624,-0.1636 -0.26983,-0.36743 z m -8.98582,-5.76249 c -0.25488,-0.0935 -0.52264,-0.32141 -0.66698,-0.56771 -0.17196,-0.29343 -0.17142,-0.73055 0.002,-1.17707 0.31198,-0.80575 0.83171,-1.42961 1.42727,-1.71327 0.66866,-0.31847 0.93508,-0.34841 1.15383,-0.12965 0.16264,0.16264 0.17832,0.37196 0.0443,0.59172 -0.0705,0.11568 -0.14894,0.16554 -0.35413,0.22519 -0.14494,0.0422 -0.33539,0.10664 -0.42323,0.14333 l -0.15968,0.0667 0.2466,0.14768 c 0.46882,0.28075 0.63111,0.85208 0.42803,1.50678 -0.10357,0.3339 -0.58106,0.83518 -0.87825,0.92202 -0.24787,0.0725 -0.59723,0.0657 -0.81925,-0.0158 z m 0.75532,-1.03929 c 0.15593,-0.21898 0.10831,-0.54013 -0.0963,-0.64964 -0.0795,-0.0426 -0.12241,-0.0248 -0.27671,0.11461 -0.10044,0.0907 -0.21379,0.16499 -0.25189,0.16499 -0.0494,0 -0.0693,0.0507 -0.0693,0.17702 0,0.17697 0.1142,0.33673 0.27763,0.38841 0.11631,0.0368 0.3189,-0.0582 0.41656,-0.19539 z m 12.36683,6.62017 c 1.02274,-0.48782 3.42037,-1.75465 4.03669,-2.13285 0.8546,-0.52442 1.14788,-0.66736 1.88368,-0.9181 0.85972,-0.29298 2.5036,-1.09175 3.56725,-1.73336 0.43772,-0.26403 1.00408,-0.57792 1.25858,-0.69751 0.41015,-0.19274 1.50386,-0.87679 1.50386,-0.94058 0,-0.0562 -0.72471,-0.87857 -1.45841,-1.65491 -0.4331,-0.45827 -0.94699,-1.04182 -1.14197,-1.29677 -0.20682,-0.27043 -0.48602,-0.56853 -0.67014,-0.71548 -0.17358,-0.13856 -0.43249,-0.35121 -0.57534,-0.47256 l -0.25975,-0.22064 -0.66675,0.68162 c -0.48204,0.4928 -0.77149,0.83671 -1.04487,1.24148 -0.35163,0.52066 -0.73308,1.02837 -1.73579,2.31031 -0.21952,0.28066 -0.62125,0.75958 -0.89275,1.06427 -0.2715,0.30469 -0.69782,0.81427 -0.94741,1.1324 -0.24958,0.31812 -0.66377,0.80734 -0.92042,1.08715 -0.25665,0.27981 -0.57624,0.68172 -0.7102,0.89313 -0.13396,0.21142 -0.33968,0.53429 -0.45715,0.71749 -0.11747,0.18319 -0.44023,0.60115 -0.71723,0.92878 -0.84275,0.99681 -0.92795,1.10933 -0.81213,1.07257 0.0558,-0.0177 0.39791,-0.17361 0.76025,-0.34644 z m 5.93386,-4.67111 c -0.0763,-0.0477 -0.37307,-0.32553 -0.65939,-0.6174 -0.56214,-0.57307 -0.60321,-0.65871 -0.42466,-0.88569 0.0748,-0.0952 0.13625,-0.12192 0.27982,-0.12192 0.15641,0 0.21619,0.0318 0.39962,0.21264 0.22207,0.21893 0.57497,0.48144 0.64722,0.48144 0.0538,0 0.26888,-0.2342 0.30185,-0.32878 0.0178,-0.0509 -0.11786,-0.21751 -0.4311,-0.52957 -0.49117,-0.48933 -0.55883,-0.61867 -0.44192,-0.84475 0.078,-0.15092 0.15595,-0.19407 0.35035,-0.19407 0.15684,0 0.23257,0.0628 0.60251,0.49951 0.15725,0.18565 0.51881,0.53143 0.80347,0.76841 0.28464,0.23697 0.5848,0.50746 0.66699,0.60108 0.22852,0.26026 0.19674,0.56057 -0.0711,0.67151 -0.17154,0.0711 -0.27456,0.0284 -0.55347,-0.22905 l -0.22792,-0.21039 -0.13528,0.20123 c -0.1524,0.22667 -0.458,0.49577 -0.64285,0.56605 -0.18016,0.0685 -0.30781,0.0574 -0.46416,-0.0402 z m 6.53141,-3.92708 c 0.003,-0.73442 0.0297,-1.26982 0.0791,-1.61404 0.0976,-0.68051 0.15735,-1.53687 0.18995,-2.72401 0.0147,-0.53444 0.0387,-1.13199 0.0534,-1.32787 l 0.0268,-0.35615 -0.16583,0.0458 c -0.3382,0.0934 -0.83189,-0.18174 -0.95953,-0.5347 l -0.055,-0.15212 -0.35143,0.005 c -0.29334,0.005 -0.38039,-0.0127 -0.52651,-0.10313 -0.20731,-0.12822 -0.40334,-0.39885 -0.40334,-0.55686 0,-0.0619 -0.0135,-0.0991 -0.03,-0.0827 -0.0546,0.0546 -0.39435,0.92373 -0.61835,1.58182 -0.12127,0.3563 -0.29772,0.83522 -0.3921,1.06427 -0.17722,0.43005 -0.62535,1.71536 -0.62535,1.79358 0,0.0243 0.10033,0.17209 0.22294,0.3284 0.12262,0.1563 0.31905,0.43066 0.43651,0.60968 0.21937,0.33436 0.43486,0.55271 1.1939,1.20972 0.57916,0.50133 1.10176,1.01221 1.54179,1.50721 0.19795,0.22269 0.36395,0.40489 0.36889,0.40489 0.005,0 0.0113,-0.49454 0.0141,-1.09898 z m -0.70107,-4.52649 c -0.0763,-0.0397 -0.18047,-0.11018 -0.23136,-0.15661 -0.0509,-0.0464 -0.36199,-0.2547 -0.69132,-0.46283 -0.32931,-0.20812 -0.62537,-0.41342 -0.6579,-0.45622 -0.0925,-0.12172 -0.0726,-0.30628 0.045,-0.41678 0.16099,-0.15123 0.32746,-0.12806 0.55332,0.077 0.26224,0.23812 0.6786,0.51379 1.08457,0.71807 0.45453,0.22873 0.54971,0.43205 0.30738,0.65663 -0.14257,0.13213 -0.21926,0.13975 -0.40969,0.0407 z m -31.09856,4.48649 c 0.11905,-0.0665 0.20848,-0.12897 0.19873,-0.13872 -0.0324,-0.0324 -0.40124,0.14305 -0.42426,0.20187 -0.0305,0.0779 -0.0231,0.0758 0.22553,-0.0631 z m 26.35732,-3.64032 0.30245,0.01 -0.59471,-1.18986 c -0.53144,-1.06327 -0.78881,-1.49656 -1.43045,-2.40826 -0.0776,-0.11023 -0.42166,-0.75574 -0.76463,-1.43445 -0.34298,-0.67872 -0.86499,-1.64261 -1.16004,-2.14199 -0.61052,-1.03333 -0.48071,-0.95294 -1.05697,-0.65453 l -0.28364,0.14687 0.0396,0.21168 c 0.0392,0.21022 -0.0243,3.08976 -0.0772,3.49442 -0.015,0.11453 -0.0571,0.43728 -0.0937,0.71722 -0.0887,0.67894 -0.16883,0.9042 -0.41021,1.15256 -0.48606,0.50013 -1.05349,0.5852 -1.96831,0.29511 -0.4456,-0.1413 -0.61563,-0.24009 -0.82751,-0.48079 -0.40983,-0.46559 -0.51759,-1.32121 -0.31096,-2.46887 0.11621,-0.64539 0.15221,-1.06613 0.0912,-1.06613 -0.0499,0 -0.34463,0.19074 -0.8268,0.53501 -0.84402,0.60265 -1.68708,1.05546 -2.37035,1.27314 -0.2828,0.0901 -0.34506,0.1291 -0.40384,0.25295 -0.0662,0.1395 -0.20826,0.67696 -0.2097,0.79338 -4.9e-4,0.0411 0.22397,0.0511 0.89006,0.0396 0.48991,-0.008 0.9664,-0.0303 1.05887,-0.0486 0.15345,-0.0303 0.17027,-0.0493 0.19273,-0.21677 0.0135,-0.10092 0.0605,-0.22313 0.1043,-0.27155 0.11281,-0.12465 0.35077,-0.15925 0.51415,-0.0748 0.2047,0.10585 0.26056,0.25214 0.23939,0.62685 -0.031,0.54833 -0.20569,0.68452 -0.76879,0.59924 -0.17109,-0.0259 -0.82765,-0.045 -1.45899,-0.0424 -0.65994,0.003 -1.18342,-0.0143 -1.23145,-0.04 -0.14281,-0.0765 -0.19685,-0.28981 -0.18075,-0.71376 0.0145,-0.37952 0.0108,-0.39662 -0.0774,-0.37046 -0.16272,0.0482 -2.58657,1.25649 -3.08373,1.53721 -1.23416,0.69685 -2.09657,1.20418 -2.10862,1.24045 -0.007,0.0219 0.0857,0.046 0.20653,0.0535 0.12086,0.008 0.70908,0.0792 1.30715,0.15933 0.98003,0.13126 1.21763,0.14649 2.40617,0.15416 0.96974,0.006 1.43512,0.0284 1.75836,0.0834 0.48001,0.0818 1.11511,0.0918 1.55013,0.0245 0.26685,-0.0412 3.7256,-0.14591 4.48844,-0.13577 0.2036,0.003 0.54717,0.0392 0.76349,0.081 0.29577,0.0572 0.61005,0.0734 1.26717,0.0653 0.57491,-0.007 1.06563,0.0136 1.43445,0.0605 1.35616,0.1723 1.7258,0.20044 2.24954,0.17133 0.29267,-0.0163 0.66825,-0.0251 0.8346,-0.0197 z m 1.61847,-2.02276 c 0.22253,-0.67443 0.48192,-1.4761 0.57643,-1.78149 0.0945,-0.3054 0.30686,-0.83638 0.47189,-1.17995 0.37416,-0.779 0.53719,-1.2074 1.10051,-2.89204 0.2468,-0.73805 0.5293,-1.56054 0.62778,-1.82776 0.0985,-0.26723 0.20314,-0.57957 0.23258,-0.69409 0.0902,-0.35113 0.69042,-2.08626 0.83773,-2.42194 0.0764,-0.17409 0.13161,-0.32383 0.12269,-0.33276 -0.0388,-0.0388 -1.20441,0.58056 -1.54254,0.8197 l -0.3718,0.26294 -0.0554,0.3231 c -0.0951,0.5548 -0.22527,0.83122 -0.53886,1.14459 -0.69845,0.69799 -1.66982,0.901 -2.92497,0.61132 l -0.4222,-0.0974 -0.376,0.17644 c -0.2068,0.097 -0.376,0.18556 -0.376,0.19671 0,0.0391 0.20414,0.30633 0.49906,0.65335 0.1637,0.19264 0.31569,0.3977 0.33773,0.4557 0.0221,0.058 0.0682,0.10545 0.10258,0.10545 0.0817,0 0.24681,0.17758 0.30078,0.32351 0.13707,0.37053 -0.40166,0.86015 -0.75744,0.6884 -0.0721,-0.0348 -0.25712,-0.22982 -0.41105,-0.43332 -0.15394,-0.2035 -0.44803,-0.54506 -0.65353,-0.75903 L 73.62868,246.76099 73.1,247.01723 c -0.29077,0.14094 -0.63799,0.30402 -0.77161,0.36239 -0.13361,0.0584 -0.24292,0.11387 -0.24292,0.12331 0,0.0985 0.83817,1.71241 1.06296,2.04669 0.16188,0.24074 0.49164,0.80294 0.73281,1.24937 0.24117,0.44642 0.5845,1.04072 0.76295,1.32067 0.17845,0.27994 0.53468,0.87418 0.79161,1.32052 0.25693,0.44634 0.64414,1.0839 0.86047,1.41682 l 0.39331,0.60531 0.0641,-0.21374 c 0.0352,-0.11756 0.24616,-0.76554 0.46868,-1.43996 z m -7.9244,-0.5331 c 0.29328,-0.0871 0.51481,-0.32845 0.6264,-0.68247 0.16007,-0.50778 0.27748,-1.45492 0.28239,-2.27801 0.004,-0.67961 -0.0105,-0.85116 -0.10674,-1.26093 -0.0613,-0.26086 -0.12979,-0.47429 -0.15223,-0.47429 -0.0224,0 -0.11805,0.0388 -0.21247,0.0862 -0.0944,0.0474 -0.31744,0.1336 -0.49559,0.19156 -0.38465,0.12516 -0.75883,0.30613 -1.20814,0.58432 l -0.32896,0.20368 -0.0297,0.28369 c -0.0163,0.15603 -0.0297,0.45243 -0.0297,0.65866 1e-5,0.46924 0.20659,2.05385 0.29551,2.26665 0.10574,0.25308 0.54669,0.4668 1.00329,0.48627 0.0654,0.003 0.2255,-0.0266 0.35584,-0.0653 z m 11.70962,-0.56588 c -0.0107,-0.0932 -0.0439,-0.13138 -0.12408,-0.14273 -0.15092,-0.0213 -0.21278,0.0509 -0.14772,0.17247 0.032,0.0597 0.0976,0.0975 0.16932,0.0975 0.10047,0 0.11504,-0.0181 0.10248,-0.12725 z m -1.18611,-0.53059 c -0.0332,-0.0332 -0.0548,-0.0359 -0.0548,-0.007 0,0.0618 0.0547,0.11649 0.0856,0.0856 0.0131,-0.0131 -7.4e-4,-0.0485 -0.0308,-0.0787 z m 1.72541,-1.74833 c -0.0289,-1.50297 -0.0234,-1.70761 0.0647,-2.40617 0.11008,-0.87347 0.17126,-1.79686 0.23914,-3.60925 0.0262,-0.69988 0.0671,-1.40684 0.0908,-1.57103 0.0237,-0.16419 0.0368,-0.30489 0.029,-0.31268 -0.008,-0.008 -0.0691,0.19546 -0.13622,0.45165 -0.15881,0.60595 -0.48326,1.64377 -1.0336,3.30609 -0.24434,0.73805 -0.51551,1.59169 -0.6026,1.89698 -0.0871,0.3053 -0.27926,0.84668 -0.42705,1.20309 -0.31032,0.74838 -0.38349,0.96342 -0.51179,1.50404 -0.1017,0.42859 -0.11308,0.51822 -0.0539,0.42496 0.0212,-0.0335 0.11731,-0.088 0.2135,-0.12102 0.20259,-0.0697 0.44048,-0.0313 0.62206,0.10024 0.14098,0.10215 0.37375,0.5362 0.37375,0.69693 0,0.0946 0.0168,0.10817 0.10412,0.0842 0.2956,-0.0811 0.46165,-0.0833 0.65643,-0.009 0.11213,0.0429 0.23042,0.10984 0.26285,0.14892 0.12215,0.14717 0.1404,-0.15243 0.10895,-1.788 z m -3.74153,-5.45101 c 0.18139,-0.0925 0.48065,-0.38498 0.48065,-0.4697 0,-0.0225 0.0127,-0.0738 0.0281,-0.11415 0.0191,-0.0497 -0.13303,0.003 -0.47429,0.16452 -0.27633,0.13079 -0.64551,0.29482 -0.8204,0.36453 -0.18802,0.0749 -0.29203,0.13827 -0.25449,0.15497 0.0349,0.0155 0.24084,0.021 0.45761,0.0121 0.28335,-0.0116 0.44717,-0.0431 0.5828,-0.11232 z m -26.30262,23.71459 c -0.17799,-0.18946 -0.42063,-1.56218 -0.42425,-2.40012 -0.002,-0.35667 0.37844,-0.59442 0.69138,-0.43259 0.24702,0.12773 0.26905,0.24739 0.28673,1.55764 0.0151,1.11429 0.0107,1.19237 -0.0721,1.28406 -0.12029,0.13322 -0.35221,0.12889 -0.48173,-0.009 z m -13.81316,-0.43323 c -0.017,-0.017 -0.0308,-0.0603 -0.0308,-0.0962 0,-0.0807 0.73391,-0.88811 1.39874,-1.53879 0.27302,-0.26722 1.2618,-1.24363 2.19728,-2.16979 0.93548,-0.92617 1.77872,-1.73547 1.87387,-1.79843 0.32772,-0.21688 0.68248,-0.0251 0.62369,0.3372 -0.0183,0.11259 -0.11833,0.26406 -0.33015,0.49979 -0.50339,0.56022 -1.93642,1.87778 -2.49059,2.28989 -0.60059,0.44662 -0.91178,0.70905 -1.49135,1.25763 -0.22905,0.21681 -0.58662,0.51407 -0.7946,0.66056 -0.20799,0.1465 -0.46503,0.33895 -0.57122,0.42767 -0.18347,0.15328 -0.31679,0.19848 -0.38482,0.13045 z m -4.13881,-9.29568 c -0.0755,-0.0529 -0.10284,-0.11864 -0.10284,-0.24733 0,-0.26568 0.0566,-0.30221 0.97172,-0.62741 0.16542,-0.0588 0.40489,-0.14839 0.53214,-0.19913 0.12724,-0.0507 0.34471,-0.10769 0.48325,-0.12656 0.13853,-0.0188 0.36564,-0.0735 0.50467,-0.12129 0.17329,-0.0596 0.38208,-0.087 0.66395,-0.087 0.5184,0 0.94319,-0.0868 1.81856,-0.37148 1.58959,-0.51701 1.79273,-0.54987 2.01642,-0.32617 0.27029,0.27029 0.13734,0.69277 -0.24898,0.79113 -0.10679,0.0272 -0.41757,0.11179 -0.69062,0.18798 -0.27305,0.0762 -0.85608,0.19202 -1.29563,0.25737 -0.54568,0.0811 -0.9166,0.16316 -1.16937,0.2586 -1.12031,0.423 -1.09346,0.41674 -2.63004,0.61323 -0.6804,0.087 -0.72633,0.0869 -0.85323,-0.002 z m 12.52956,-4.13877 c -0.1106,-0.1106 -0.12205,-0.35344 -0.0219,-0.46412 0.0571,-0.0631 0.0801,-0.32625 0.11989,-1.36869 0.0271,-0.70982 0.0912,-1.63417 0.14255,-2.05408 0.0679,-0.55549 0.10401,-1.24885 0.13252,-2.545 0.0536,-2.4372 0.11227,-3.48246 0.23114,-4.11825 0.0856,-0.45786 0.1019,-0.74204 0.11677,-2.03599 0.0344,-2.99432 0.0492,-3.4328 0.12834,-3.80999 0.0535,-0.25525 0.0762,-0.59791 0.0762,-1.15681 8e-5,-0.99927 0.009,-1.01967 0.55519,-1.33912 0.21632,-0.12642 0.64045,-0.37825 0.94249,-0.55965 0.30205,-0.1814 0.60397,-0.36155 0.67095,-0.40035 0.5843,-0.33842 0.89506,-0.52214 1.3888,-0.82105 0.31511,-0.19077 0.81485,-0.46132 1.11054,-0.60124 0.29569,-0.1399 0.94366,-0.5182 1.43993,-0.84066 0.49627,-0.32246 1.21466,-0.7606 1.5964,-0.97364 0.38174,-0.21304 0.95437,-0.56866 1.27249,-0.79026 0.31813,-0.22162 0.77622,-0.5219 1.018,-0.66729 0.24177,-0.14541 0.59832,-0.36282 0.79234,-0.48316 0.19401,-0.12033 0.51676,-0.27732 0.71722,-0.34887 0.5135,-0.18327 0.81754,-0.34225 1.24365,-0.6503 0.2036,-0.14718 0.60964,-0.37886 0.90232,-0.51485 0.752,-0.34941 0.9372,-0.45284 1.43445,-0.80111 0.63895,-0.44751 0.85692,-0.57845 1.31614,-0.79061 0.2531,-0.11693 0.44915,-0.18038 0.51011,-0.16508 0.0642,0.0161 0.12644,-0.007 0.17706,-0.0663 0.0429,-0.0501 0.10513,-0.0911 0.13823,-0.0911 0.0331,0 0.22592,0.10563 0.42848,0.23474 0.20255,0.12912 0.55569,0.32927 0.78474,0.4448 0.22905,0.11553 0.64549,0.36063 0.92545,0.54467 0.27995,0.18403 0.77969,0.47588 1.11054,0.64853 0.6933,0.36179 0.91313,0.50269 1.46116,0.93649 0.40831,0.3232 0.56446,0.43175 1.36534,0.94914 0.25663,0.16579 0.65226,0.44629 0.87918,0.62334 0.51824,0.40435 0.60924,0.45529 1.30093,0.72818 0.62054,0.24481 0.65419,0.26588 1.71041,1.07052 0.40307,0.30708 0.82656,0.62146 0.94108,0.69865 0.23644,0.15935 1.48304,0.8446 2.24422,1.23365 0.27995,0.14308 0.64787,0.37002 0.8176,0.50431 0.16974,0.13429 0.52372,0.41026 0.78663,0.61327 0.26292,0.20301 0.58677,0.47787 0.71967,0.61079 0.13289,0.13292 0.28386,0.26428 0.33547,0.2919 0.0822,0.044 0.0939,0.0959 0.0939,0.41878 0,0.29646 -0.0167,0.38524 -0.0853,0.45387 -0.0469,0.047 -0.33979,0.22528 -0.6508,0.39633 -0.31102,0.17105 -0.76717,0.44187 -1.01366,0.60181 -0.39298,0.255 -1.51882,0.85486 -2.79751,1.49054 -0.22324,0.11099 -0.58764,0.27237 -0.80977,0.35863 -0.22213,0.0863 -0.68497,0.29155 -1.02854,0.4562 -0.34358,0.16465 -0.82513,0.37592 -1.07012,0.4695 -0.34745,0.13271 -0.66809,0.31857 -1.45758,0.84492 -1.08333,0.72224 -1.89294,1.15114 -2.68571,1.42282 -0.58915,0.20188 -0.7682,0.29244 -1.28789,0.65131 -0.22904,0.15817 -0.60345,0.3889 -0.832,0.51274 -0.22855,0.12383 -0.645,0.36791 -0.92545,0.54239 -0.64225,0.39957 -3.01574,1.57172 -3.75007,1.85196 -0.3048,0.11632 -0.65621,0.25692 -0.78091,0.31245 -0.49179,0.21899 -2.1586,1.1077 -2.59589,1.38407 -0.2545,0.16085 -0.72301,0.42912 -1.04113,0.59616 -0.31813,0.16704 -0.77622,0.43188 -1.018,0.58852 -0.52285,0.33877 -0.73531,0.44891 -1.41753,0.73487 -0.28336,0.11878 -0.74147,0.36328 -1.01799,0.54334 -0.6845,0.44569 -1.16501,0.6972 -1.65959,0.86866 -0.44614,0.15466 -1.99457,0.79947 -2.45245,1.02127 -1.27025,0.61531 -2.47979,1.29572 -3.1419,1.76746 -0.21272,0.15154 -0.40813,0.16466 -0.53677,0.036 z m 1.07534,-0.92372 c 0.44405,-0.17099 0.62682,-0.26337 1.24543,-0.62948 0.27116,-0.16047 0.71885,-0.40451 0.99487,-0.54229 0.27601,-0.13779 0.61637,-0.32239 0.75634,-0.41023 0.13998,-0.0878 0.57726,-0.31894 0.97173,-0.51354 0.42253,-0.20845 0.93586,-0.50872 1.24935,-0.73079 0.29268,-0.20733 0.63625,-0.42956 0.7635,-0.49383 0.12725,-0.0643 0.23739,-0.12213 0.24475,-0.12855 0.0236,-0.0206 -0.20437,-0.59348 -0.35448,-0.89084 -0.0799,-0.15828 -0.28397,-0.51199 -0.45351,-0.78603 -0.38936,-0.62938 -0.49325,-0.88673 -0.66426,-1.64549 -0.17844,-0.79165 -0.32256,-1.21399 -0.57961,-1.69854 -0.30175,-0.56882 -0.53983,-1.0725 -0.74217,-1.5702 -0.0976,-0.24009 -0.3208,-0.67737 -0.49597,-0.97172 -0.38483,-0.64669 -0.73258,-1.33072 -1.22482,-2.40924 -0.38473,-0.84297 -0.48608,-1.13241 -0.67985,-1.94162 -0.0637,-0.26623 -0.20463,-0.67106 -0.31307,-0.89964 l -0.19717,-0.4156 -0.0499,0.38332 c -0.0305,0.23473 -0.0359,0.55659 -0.0138,0.83023 0.0615,0.76223 0.0447,1.38786 -0.0514,1.9164 -0.17774,0.97776 -0.25786,3.26323 -0.15666,4.46946 0.0497,0.59214 0.0173,0.99942 -0.13842,1.74229 -0.0374,0.17815 -0.0911,0.52173 -0.11937,0.7635 -0.0284,0.24177 -0.0925,0.77924 -0.14274,1.19437 -0.0705,0.58317 -0.0913,1.04671 -0.0913,2.03868 0,1.10805 -0.10125,3.24438 -0.16201,3.41863 -0.0284,0.0814 0.004,0.0751 0.40444,-0.0793 z m 2.23314,-2.57015 c -0.38721,-0.13732 -0.44992,-0.42173 -0.18448,-0.83669 0.0894,-0.13977 0.31449,-0.44591 0.50019,-0.6803 0.18569,-0.23439 0.48186,-0.63402 0.65815,-0.88808 0.1763,-0.25405 0.42049,-0.582 0.54264,-0.72879 0.20868,-0.25075 0.23438,-0.26688 0.42528,-0.26688 0.16439,0 0.22149,0.0232 0.29909,0.12192 0.18416,0.23414 0.15009,0.31087 -0.45948,1.0349 -0.42815,0.50853 -0.92534,1.18054 -0.92534,1.2507 0,0.0182 0.0793,0.0458 0.1762,0.0613 0.25309,0.0405 0.4022,0.21554 0.4022,0.47219 0,0.24919 -0.15032,0.42258 -0.42073,0.48531 -0.26941,0.0625 -0.80341,0.049 -1.01372,-0.0256 z m -1.47184,-2.21926 c -0.61227,-0.15961 -0.94546,-0.99639 -0.39674,-0.99639 0.10772,0 0.15482,0.0323 0.21649,0.14844 0.0433,0.0816 0.13706,0.20915 0.20822,0.28334 0.109,0.11364 0.15475,0.13079 0.29021,0.10881 0.22326,-0.0362 0.55453,-0.20906 0.77426,-0.40394 l 0.18505,-0.16412 -0.18695,-0.056 c -0.24793,-0.0743 -0.49623,-0.35413 -0.58781,-0.66252 -0.1006,-0.33877 -0.0927,-0.89298 0.0162,-1.13272 0.19636,-0.43238 0.6979,-0.75755 1.1697,-0.75837 0.32206,-4.9e-4 0.44002,0.0419 0.66452,0.23899 0.35858,0.31483 0.43974,0.80512 0.23113,1.39626 -0.22972,0.65099 -0.5948,1.10529 -1.2667,1.57627 -0.57691,0.4044 -0.93949,0.52051 -1.31757,0.42196 z m 1.56166,-1.76136 c 0.0494,-0.0374 0.1288,-0.068 0.17643,-0.068 0.10116,0 0.35844,-0.52024 0.35844,-0.72479 0,-0.16698 -0.16791,-0.33949 -0.33044,-0.33949 -0.17541,0 -0.44189,0.26999 -0.48305,0.48942 -0.0318,0.16952 -2.4e-4,0.58616 0.0507,0.66851 0.0392,0.0633 0.12272,0.0538 0.22795,-0.0257 z m 4.69012,2.73587 c 0.15741,-0.082 0.49485,-0.52794 0.98366,-1.29995 0.20949,-0.33085 0.50953,-0.78895 0.66675,-1.01799 0.90875,-1.32386 1.09544,-1.60795 1.2772,-1.94345 0.26443,-0.48813 0.45891,-0.79171 0.83004,-1.29563 0.16869,-0.22905 0.43868,-0.61427 0.59999,-0.85604 0.1613,-0.24178 0.50588,-0.71029 0.76573,-1.04113 0.57191,-0.72817 0.71837,-0.95442 1.06329,-1.64268 0.42659,-0.85126 1.17378,-2.11994 1.98939,-3.37789 0.0578,-0.0891 0.20405,-0.32854 0.32511,-0.53214 0.18515,-0.31138 0.68788,-1.07981 0.88785,-1.35705 0.0517,-0.0717 -0.002,-0.0762 -0.71441,-0.0609 -0.43938,0.009 -0.91058,-0.006 -1.09695,-0.036 -0.53677,-0.0862 -1.01839,-0.0696 -1.7149,0.0591 -0.3563,0.0659 -0.96401,0.16308 -1.35047,0.21607 -0.68373,0.0938 -0.71862,0.0942 -1.29563,0.0176 -0.73656,-0.0978 -1.35702,-0.0985 -1.85468,-0.002 -0.21039,0.0408 -0.78083,0.10636 -1.26766,0.14578 -0.48683,0.0394 -0.89772,0.0793 -0.91311,0.0886 -0.0154,0.009 -0.38196,0.0613 -0.8146,0.11542 -0.43265,0.0541 -1.10939,0.14969 -1.50386,0.21229 -0.5721,0.0908 -2.08636,0.20224 -2.81673,0.2073 -0.0446,2.5e-4 -0.0497,0.0176 -0.0172,0.0582 0.0254,0.0318 0.0612,0.10991 0.0794,0.17353 0.0666,0.23218 0.32905,0.77795 0.66763,1.38817 0.19063,0.34358 0.41308,0.78085 0.49435,0.97173 0.0813,0.19088 0.24581,0.55527 0.36564,0.80977 0.27308,0.57994 0.45732,1.08284 0.76284,2.08227 0.14396,0.4709 0.35883,1.03735 0.53535,1.4113 0.16219,0.34358 0.3885,0.89183 0.50294,1.21834 0.21954,0.62638 0.4249,1.0353 0.83888,1.67041 0.39368,0.60396 0.49252,0.8518 0.92407,2.31692 0.13134,0.44592 0.5556,1.36503 0.6301,1.36503 0.0248,0 0.10124,-0.0293 0.16997,-0.0651 z m 2.13781,-7.70071 c -0.51243,-0.17148 -0.82531,-0.37698 -1.07713,-0.70746 -0.15624,-0.20503 -0.46203,-0.90256 -0.54028,-1.2324 -0.0317,-0.13361 -0.068,-0.24293 -0.0807,-0.24293 -0.0127,0 -0.1999,0.0876 -0.41603,0.19473 -0.52746,0.26137 -0.84847,0.28715 -1.2172,0.0978 -0.15393,-0.0791 -0.31346,-0.20932 -0.40448,-0.33028 -0.19915,-0.26463 -0.35339,-0.77854 -0.35671,-1.18844 -0.003,-0.39093 0.1087,-0.62105 0.40486,-0.83291 0.16635,-0.11899 0.24363,-0.14109 0.54114,-0.15477 0.40529,-0.0186 0.70577,0.0664 1.37429,0.38886 0.43032,0.20755 0.89303,0.59236 0.89303,0.74267 0,0.0565 0.0392,0.0642 0.2027,0.0396 0.47511,-0.0712 1.25916,0.25049 1.72307,0.70704 0.50512,0.49711 0.74116,1.25242 0.54879,1.75611 -0.24712,0.64707 -0.94433,0.98023 -1.59538,0.76236 z m 0.63085,-0.87006 c 0.28436,-0.13493 0.37053,-0.38385 0.22819,-0.65912 -0.093,-0.17985 -0.41799,-0.46285 -0.64874,-0.56492 -0.18458,-0.0816 -1.08003,-0.25239 -1.11903,-0.21338 -0.0408,0.0408 0.16757,0.6012 0.30041,0.80821 0.17647,0.275 0.34059,0.43287 0.60832,0.58512 0.24203,0.13764 0.40911,0.14932 0.63085,0.0441 z m -2.56623,-1.93424 0.35511,-0.17207 -0.0775,-0.21633 c -0.10036,-0.28023 -0.43401,-0.61753 -0.68438,-0.69189 -0.41642,-0.12366 -0.86507,-0.0345 -0.98864,0.19634 -0.1186,0.22162 0.0739,0.71765 0.37778,0.97333 0.13252,0.11151 0.1776,0.12307 0.40578,0.10407 0.16796,-0.014 0.3795,-0.0809 0.61183,-0.19345 z m 1.51775,9.48167 c 0.16478,-0.0758 0.62664,-0.2987 1.02637,-0.49537 0.39973,-0.19667 0.94166,-0.42887 1.20427,-0.51601 0.56127,-0.18622 1.08879,-0.41442 1.91396,-0.82793 0.49346,-0.24729 0.65681,-0.35664 0.92341,-0.61822 0.2635,-0.25852 0.42748,-0.36911 0.87918,-0.59289 0.47259,-0.23414 0.60871,-0.32807 0.9141,-0.63086 0.3687,-0.36554 0.49821,-0.58271 0.58894,-0.98754 0.092,-0.41044 -0.0808,-0.8904 -0.37782,-1.04934 -0.17415,-0.0932 -0.81498,-0.12814 -1.13234,-0.0617 -0.49465,0.10349 -0.68986,0.30729 -0.74177,0.77441 -0.0318,0.28604 -0.15741,0.44868 -0.34658,0.44868 -0.17784,0 -0.31583,-0.14846 -0.31583,-0.33981 0,-0.0851 0.0417,-0.27603 0.0928,-0.42432 0.30611,-0.88973 0.98676,-1.35769 2.00259,-1.37683 0.85538,-0.0161 1.33495,0.38816 1.46935,1.23864 0.0575,0.3641 0.0283,0.70499 -0.0941,1.09839 -0.0456,0.14666 -0.0757,0.26665 -0.0667,0.26665 0.009,0 0.12411,-0.0636 0.25595,-0.14133 0.13183,-0.0777 0.3618,-0.20297 0.51103,-0.2783 0.26699,-0.13478 0.27133,-0.14013 0.27133,-0.33396 0,-0.28229 0.15157,-0.78946 0.29989,-1.00349 0.28574,-0.41232 0.71395,-0.60281 1.35505,-0.60281 0.58984,0 0.9667,0.11373 1.40216,0.42317 0.0579,0.0412 0.13867,0.008 0.40116,-0.16699 l 0.32864,-0.21854 -0.21475,-0.33116 c -0.11812,-0.18215 -0.4184,-0.777 -0.66732,-1.32191 -0.50463,-1.10474 -0.83344,-1.67127 -1.42578,-2.45656 -0.51127,-0.67783 -0.56972,-0.77295 -1.00037,-1.62805 -0.29999,-0.59565 -0.63055,-1.1483 -0.68685,-1.1483 -0.008,0 -0.0713,0.0989 -0.14091,0.21979 -0.15409,0.26769 -1.60636,2.36184 -2.30937,3.33004 -0.28117,0.38724 -0.66267,0.93904 -0.84779,1.22622 -0.18511,0.28719 -0.55244,0.78012 -0.81629,1.09542 -0.26385,0.31529 -0.60927,0.79421 -0.7676,1.06427 -0.15834,0.27005 -0.50215,0.83457 -0.76403,1.2545 -0.26187,0.41992 -0.61296,0.9995 -0.78019,1.28794 -0.16725,0.28845 -0.45769,0.73614 -0.64544,0.99486 -0.18776,0.25872 -0.59499,0.84522 -0.90496,1.30331 -0.30997,0.45811 -0.69933,1.02761 -0.86525,1.26556 -0.16591,0.23795 -0.285,0.42489 -0.26464,0.41542 0.0203,-0.01 0.17182,-0.0792 0.3366,-0.15501 z m 10.69013,-5.36594 c 0.19087,-0.0825 0.38869,-0.1654 0.43958,-0.18411 0.0875,-0.0322 0.0862,-0.0366 -0.0231,-0.0807 -0.0637,-0.0257 -0.30308,-0.0569 -0.53214,-0.0695 -0.38167,-0.0208 -0.42976,-0.0137 -0.5759,0.0862 -0.18644,0.12739 -0.30382,0.31701 -0.34638,0.55956 l -0.0304,0.17329 0.36067,-0.16734 c 0.19836,-0.092 0.51683,-0.23487 0.7077,-0.31741 z m 3.58951,-1.97613 0.37357,-0.1887 -0.0844,-0.16548 c -0.23002,-0.45118 0.0209,-0.88727 0.69138,-1.20148 0.24262,-0.11371 0.30906,-0.12367 0.77439,-0.11601 0.28877,0.005 0.68301,0.0456 0.91118,0.0946 l 0.4022,0.0862 0.31503,-0.18014 c 0.17327,-0.0991 0.60655,-0.35246 0.96285,-0.56308 0.3563,-0.21061 0.78316,-0.45509 0.94858,-0.54327 0.16543,-0.0882 0.30078,-0.1793 0.30078,-0.20247 0,-0.10834 -0.36675,-0.21787 -0.73524,-0.21958 -0.38794,-0.002 -0.5553,0.0504 -0.66713,0.20795 -0.0694,0.0977 -0.32954,0.11628 -0.41614,0.0297 -0.0305,-0.0305 -0.0555,-0.12518 -0.0555,-0.21033 0,-0.20171 0.14673,-0.34721 0.5319,-0.52746 0.86464,-0.40461 1.56768,-0.35534 2.0825,0.14595 l 0.18508,0.18022 0.52165,-0.33945 c 0.36019,-0.2344 0.71106,-0.41393 1.13367,-0.58008 0.33663,-0.13235 0.73698,-0.29614 0.88968,-0.36399 l 0.27763,-0.12336 -1.04113,-0.0254 c -1.06641,-0.026 -1.65492,-0.0897 -3.42416,-0.37064 -0.47083,-0.0748 -1.02263,-0.15788 -1.22623,-0.18473 -0.2036,-0.0269 -0.64087,-0.11842 -0.97172,-0.2035 -0.33085,-0.0851 -0.70565,-0.16692 -0.83291,-0.18188 -0.12725,-0.015 -0.48873,-0.0731 -0.8033,-0.12939 -0.53659,-0.0959 -0.61666,-0.0988 -1.29563,-0.048 -0.58777,0.0439 -0.92359,0.0414 -1.78796,-0.0137 -0.95007,-0.0605 -1.14619,-0.0877 -1.82776,-0.25329 -0.69924,-0.1699 -0.97173,-0.21675 -0.97173,-0.16706 0,0.0572 0.2273,0.42772 0.47205,0.76941 0.40761,0.56906 0.64161,0.99898 0.9657,1.7742 0.30546,0.73068 0.69146,1.50959 0.94082,1.89852 0.0831,0.12967 0.32055,0.43933 0.52758,0.68814 0.48413,0.58181 0.59848,0.75095 0.85976,1.2718 l 0.21498,0.42854 0.24221,-0.14198 c 0.13321,-0.0781 0.41031,-0.2269 0.61577,-0.33068 z m 1.76802,-0.66901 c 0.13267,-0.0589 0.15245,-0.0811 0.0864,-0.0968 -0.11089,-0.0265 -0.40027,0.0277 -0.40027,0.075 0,0.11464 0.0905,0.12093 0.31383,0.0218 z m 5.80049,-5.23282 c -0.16078,-0.0951 -0.45182,-0.30283 -0.64677,-0.46158 -1.09513,-0.89187 -2.04001,-1.55179 -2.57736,-1.80006 -0.19159,-0.0885 -0.45415,-0.22333 -0.58348,-0.29958 -0.12932,-0.0762 -0.43575,-0.24535 -0.68094,-0.37579 -0.60261,-0.32055 -0.79854,-0.45905 -1.23245,-0.87116 -0.45004,-0.42744 -0.48638,-0.45273 -1.28611,-0.89514 -0.35106,-0.1942 -0.68732,-0.38522 -0.74723,-0.42448 l -0.10894,-0.0714 0.0994,0.19891 c 0.0796,0.15927 0.0994,0.28187 0.0994,0.61535 0,0.40386 -0.009,0.43745 -0.28415,1.11054 -0.15629,0.38175 -0.30506,0.77031 -0.3306,0.86348 l -0.0464,0.16938 0.21492,0.0157 c 0.11821,0.009 0.38672,0.009 0.59667,4.9e-4 0.36257,-0.0144 0.38175,-0.0204 0.38175,-0.12101 0,-0.16923 0.17049,-0.34976 0.33031,-0.34976 0.19832,0 0.31581,0.0772 0.39084,0.25674 0.1,0.23931 0.0826,0.45613 -0.049,0.6126 -0.11217,0.13331 -0.12604,0.13667 -0.68251,0.16526 -0.31242,0.0161 -0.78864,0.0423 -1.05829,0.0583 l -0.49027,0.0291 -0.14938,-0.13347 c -0.13946,-0.12461 -0.1495,-0.15388 -0.15115,-0.44095 -0.002,-0.3613 0.0845,-0.65013 0.36113,-1.20405 0.39293,-0.78696 0.42363,-1.14465 0.12648,-1.47355 -0.27793,-0.30764 -0.66413,-0.29708 -0.66413,0.0181 0,0.27897 -0.32593,0.45471 -0.58559,0.31574 -0.26025,-0.13928 -0.23941,-0.66153 0.0399,-1.00043 0.15332,-0.186 0.44616,-0.34728 0.6337,-0.34899 0.0823,-7.4e-4 0.004,-0.0681 -0.30078,-0.25914 -0.22656,-0.14197 -0.60659,-0.40746 -0.84449,-0.58997 -0.62995,-0.48329 -1.10632,-0.81132 -1.54252,-1.06215 -0.21165,-0.12173 -0.6347,-0.41756 -0.9401,-0.65741 -0.30539,-0.23985 -0.5738,-0.43699 -0.59645,-0.43808 -0.0228,-7.7e-4 -0.028,0.11697 -0.0116,0.26408 0.0163,0.14634 0.081,0.76582 0.14386,1.37661 0.0629,0.6108 0.14938,1.28754 0.19226,1.50386 0.0884,0.44616 0.10221,1.13449 0.0453,2.26736 -0.0331,0.65957 -0.0253,0.86039 0.0579,1.47534 0.0529,0.39152 0.10717,0.7228 0.12056,0.73618 0.0134,0.0134 0.58148,0.039 1.26244,0.057 1.14969,0.0304 1.26527,0.0412 1.61831,0.15165 0.2091,0.0654 0.65679,0.15386 0.99486,0.19649 0.35225,0.0444 0.85171,0.14713 1.16994,0.24062 0.61763,0.18145 0.92755,0.21291 2.78181,0.28241 0.58835,0.0221 1.0888,0.0519 1.1121,0.0663 0.0233,0.0144 0.44771,0.0596 0.94313,0.10053 0.49541,0.0409 1.17144,0.10534 1.50229,0.14324 0.51709,0.0592 1.2641,0.13203 1.57221,0.15321 0.0504,0.003 -0.04,-0.0715 -0.20083,-0.16664 z m -10.24157,-1.80521 c -0.0653,-0.07 -0.18634,-0.31466 -0.26882,-0.54371 -0.0825,-0.22904 -0.23886,-0.63508 -0.34753,-0.90231 -0.10865,-0.26722 -0.22373,-0.60466 -0.25573,-0.74986 l -0.0582,-0.26399 -0.11503,0.0905 c -0.13813,0.10866 -0.24693,0.11391 -0.42737,0.0206 -0.29376,-0.15191 -0.29797,-0.34436 -0.02,-0.91182 0.11576,-0.23629 0.2459,-0.50248 0.28921,-0.59156 0.0618,-0.12706 0.11019,-0.16501 0.22476,-0.17613 0.17892,-0.0174 0.294,0.12286 0.52431,0.63885 0.0852,0.19088 0.25566,0.5576 0.37881,0.81496 0.12315,0.25735 0.30759,0.72554 0.40988,1.04042 0.10229,0.31488 0.23881,0.70457 0.30338,0.86598 0.13965,0.34907 0.12066,0.50922 -0.0804,0.67842 -0.18971,0.15963 -0.40226,0.15569 -0.55732,-0.0103 z m -17.66711,1.8148 c 0.36903,-0.0388 0.78548,-0.0928 0.92545,-0.11997 0.13997,-0.0272 1.05618,-0.0677 2.036,-0.09 0.97982,-0.0223 2.25,-0.0598 2.82262,-0.0832 1.00397,-0.041 1.06343,-0.0489 1.66581,-0.21949 l 0.62468,-0.17691 1.57327,-0.004 c 1.56979,-0.004 1.57433,-0.004 2.05913,-0.13269 0.3508,-0.0933 0.7624,-0.15367 1.48071,-0.21731 0.54718,-0.0484 1.03858,-0.0884 1.09202,-0.0886 0.09,-4.9e-4 0.0993,-0.0335 0.12587,-0.45165 0.0304,-0.47686 2.5e-4,-0.74489 -0.22128,-1.97815 -0.13757,-0.76542 -0.14016,-1.09768 -0.0226,-2.89329 0.0354,-0.54118 0.0436,-1.14219 0.022,-1.62996 l -0.0341,-0.77269 -0.19179,0.13076 c -0.33711,0.22986 -1.54773,0.97133 -1.77599,1.08774 -0.12122,0.0618 -0.47029,0.29059 -0.77568,0.50834 -0.3054,0.21776 -0.82614,0.53047 -1.15718,0.69492 -0.5878,0.29197 -1.02441,0.61094 -1.45136,1.06027 l -0.15609,0.16427 0.45515,-0.11558 c 0.68883,-0.1749 0.86352,-0.15677 0.97117,0.10087 0.0585,0.14013 0.0536,0.19241 -0.0535,0.56238 -0.32638,1.12781 -1.09608,2.6082 -1.46064,2.80924 -0.15265,0.0842 -0.16597,0.0845 -0.329,0.007 -0.17386,-0.0825 -0.23635,-0.19051 -0.22872,-0.39539 0.007,-0.17814 0.36309,-1.08165 0.59852,-1.51706 0.16995,-0.31433 0.1982,-0.3976 0.14613,-0.43057 -0.0355,-0.0225 -0.0773,-0.0412 -0.093,-0.0416 -0.0156,-4.9e-4 -0.0811,-0.0534 -0.1455,-0.11781 -0.15366,-0.15367 -0.19575,-0.38705 -0.10776,-0.59764 l 0.0687,-0.16435 -0.14801,0.0752 c -0.0814,0.0413 -0.29074,0.16929 -0.46521,0.28439 -0.17447,0.11509 -0.64298,0.34867 -1.04114,0.51906 -0.91323,0.3908 -1.27185,0.56962 -1.76505,0.88013 -0.64885,0.40851 -1.052,0.64155 -1.77324,1.02505 -0.66878,0.35561 -1.09424,0.63243 -1.23453,0.80323 -0.12267,0.14935 -0.57462,0.41475 -1.022,0.60016 -0.23954,0.0993 -0.71742,0.35021 -1.06195,0.55764 -0.34454,0.20742 -0.65687,0.38911 -0.69409,0.40374 -0.11599,0.0457 0.0246,0.0386 0.74211,-0.0368 z m 10.80464,-1.89038 c -0.3958,-0.18711 -0.57841,-0.4679 -0.57841,-0.88939 0,-0.38034 0.55001,-1.74818 0.83217,-2.06954 0.41515,-0.47283 1.08395,-0.52617 1.4764,-0.11775 0.46718,0.48619 0.41937,1.23822 -0.14228,2.23837 -0.29256,0.52097 -0.49761,0.77591 -0.70212,0.87296 -0.23373,0.11091 -0.60891,0.0962 -0.88576,-0.0346 z m 0.67084,-0.73472 c 0.0994,-0.22464 0.29904,-0.96767 0.34787,-1.29451 0.0429,-0.28736 -0.002,-0.48141 -0.0934,-0.40538 -0.0361,0.03 -0.079,0.0995 -0.0951,0.15446 -0.0161,0.055 -0.15561,0.41613 -0.30985,0.8026 -0.27314,0.68442 -0.2784,0.70574 -0.20266,0.82134 0.11958,0.1825 0.25057,0.15338 0.35315,-0.0785 z m -10.1763,21.31649 c -0.16413,-0.13812 -0.19052,-0.34614 -0.0663,-0.52336 0.0829,-0.11839 0.82074,-0.61231 1.20717,-0.80812 0.13312,-0.0674 0.64427,-0.29708 1.13592,-0.51029 0.49163,-0.21321 1.14275,-0.53715 1.44691,-0.71988 0.30418,-0.18272 0.76127,-0.42915 1.01577,-0.54762 0.89725,-0.41768 1.76756,-0.87683 2.26914,-1.19714 0.27897,-0.17814 0.69461,-0.42459 0.92366,-0.54767 0.22906,-0.12308 0.6098,-0.34626 0.84611,-0.49595 0.8235,-0.52165 2.33133,-1.21646 2.53109,-1.16633 0.1472,0.0369 0.2189,0.16367 0.20013,0.35373 -0.0124,0.12615 -0.0841,0.19608 -0.54647,0.53313 -0.65045,0.47418 -0.9556,0.64833 -1.65201,0.94282 -0.29653,0.1254 -0.78014,0.35738 -1.07468,0.5155 -0.29454,0.15813 -0.83746,0.42496 -1.20648,0.59296 -0.86778,0.39507 -1.50934,0.71939 -2.01973,1.02102 -0.22527,0.13313 -0.68874,0.37539 -1.02995,0.53836 -0.70766,0.33799 -1.60462,0.86086 -2.48198,1.44681 -0.7085,0.47317 -1.10363,0.69182 -1.25023,0.69182 -0.0581,0 -0.16969,-0.0539 -0.24799,-0.11979 z m -10.87759,-2.97384 c -0.11453,-0.0449 -0.46851,-0.21935 -0.78663,-0.38774 -0.31813,-0.16838 -0.73458,-0.36826 -0.92546,-0.44418 -0.54974,-0.21867 -1.78879,-0.82995 -2.24421,-1.10716 -0.44636,-0.2717 -0.74598,-0.41605 -1.23038,-0.59279 -0.51531,-0.18802 -1.99424,-0.84616 -2.08404,-0.92743 -0.27794,-0.25154 -0.057,-0.75467 0.33248,-0.7571 0.21277,-0.002 1.18942,0.48052 1.84868,0.91208 0.61722,0.40405 0.82944,0.5162 1.45717,0.77007 0.57823,0.23384 1.25429,0.53674 2.12853,0.95364 0.33085,0.15778 0.71607,0.33509 0.85605,0.39403 0.51722,0.21779 1.07356,0.49966 1.20579,0.61092 0.1776,0.14945 0.18722,0.3833 0.0226,0.54799 -0.13452,0.13453 -0.289,0.14189 -0.58052,0.0277 z m 47.07476,-2.94259 c -0.97305,-0.75086 -1.21869,-0.98782 -1.21869,-1.1756 0,-0.0973 0.0398,-0.18951 0.11358,-0.2633 0.12381,-0.12381 0.25296,-0.14291 0.41003,-0.0606 0.20724,0.10851 0.85669,0.6447 1.31631,1.08675 0.39768,0.38248 0.47466,0.47929 0.47359,0.59554 -7.4e-4,0.0763 -0.0166,0.16173 -0.0353,0.18973 -0.0451,0.0675 -0.21892,0.15731 -0.30456,0.15731 -0.0376,0 -0.37737,-0.2384 -0.75497,-0.52979 z M 43.0337,247.21009 c -0.0582,-0.0407 -0.28489,-0.34421 -0.50386,-0.67439 -0.21897,-0.33017 -0.54064,-0.76014 -0.71483,-0.95549 -0.46942,-0.52647 -0.96351,-1.27715 -0.96351,-1.4639 0,-0.19186 0.14173,-0.37365 0.34311,-0.44011 0.32773,-0.10816 0.4885,0.0216 0.90332,0.72921 0.13836,0.23601 0.39731,0.62109 0.57546,0.85573 0.39191,0.5162 0.88547,1.26312 0.95432,1.44424 0.14941,0.39298 -0.25859,0.73964 -0.59401,0.50471 z m 51.00807,-2.03059 c -0.15269,-0.0337 -0.47544,-0.12418 -0.71722,-0.20102 -0.79357,-0.25222 -2.03875,-0.4919 -2.9214,-0.56233 -0.80053,-0.0639 -1.55675,-0.17829 -1.71322,-0.2592 -0.15508,-0.0802 -0.24534,-0.32735 -0.18118,-0.49611 0.0823,-0.21655 0.2342,-0.27395 0.70793,-0.26758 0.53771,0.007 0.90075,0.0636 1.51661,0.23561 0.64222,0.17934 1.13117,0.26025 1.94345,0.3216 0.36902,0.0279 0.73341,0.0623 0.80976,0.0765 0.44549,0.0828 1.35604,0.31268 1.46847,0.37082 0.25425,0.13148 0.29841,0.50198 0.0852,0.71516 -0.12211,0.12211 -0.16371,0.1349 -0.42802,0.13158 -0.16102,-0.002 -0.41769,-0.0313 -0.5704,-0.065 z m -19.9038,-0.85424 c -0.21831,-0.0928 -0.30789,-0.37548 -0.1965,-0.61996 0.0575,-0.12623 0.11156,-0.1578 0.5733,-0.33478 0.35722,-0.13691 1.59173,-0.76482 2.31363,-1.17676 0.93832,-0.53545 1.35322,-0.73884 1.82776,-0.896 0.63137,-0.2091 0.77034,-0.22381 0.89901,-0.0951 0.0863,0.0863 0.0928,0.29033 0.0126,0.39573 -0.16298,0.2141 -1.23598,0.81788 -2.25348,1.26804 -0.63619,0.28146 -1.51393,0.72979 -2.17233,1.10958 -0.61764,0.35627 -0.82109,0.42705 -1.00396,0.34928 z m 14.11389,-4.52481 c -0.14264,-0.15392 -0.12302,-0.35347 0.0497,-0.50563 0.15135,-0.13333 0.65997,-0.24417 1.36744,-0.29802 0.7542,-0.0574 0.91826,-0.0936 1.53934,-0.33916 0.28589,-0.11306 0.78006,-0.27083 1.09819,-0.35061 0.31813,-0.0798 0.77551,-0.20741 1.01642,-0.28364 1.05204,-0.3329 3.2897,-0.78352 3.52305,-0.70945 0.15262,0.0484 0.20809,0.22686 0.11479,0.36925 -0.0433,0.066 -0.10348,0.12701 -0.13382,0.13549 -0.0304,0.008 -0.31542,0.10942 -0.63355,0.22433 -0.31812,0.1149 -0.78663,0.25311 -1.04113,0.30713 -0.2545,0.054 -0.7126,0.16976 -1.018,0.2572 -0.81852,0.23434 -1.99962,0.4807 -2.6838,0.55978 -0.71546,0.0827 -0.79726,0.10282 -1.37567,0.33816 -0.3826,0.15567 -1.41359,0.42154 -1.63466,0.42154 -0.0392,0 -0.12392,-0.0568 -0.18833,-0.12637 z m -2.22041,-4.45269 c -0.2418,-0.10016 -0.3722,-0.46641 -0.24842,-0.69769 0.0259,-0.0485 0.32266,-0.27555 0.65939,-0.50461 0.33671,-0.22906 0.76838,-0.56813 0.95925,-0.75351 0.74619,-0.72465 1.92796,-1.81479 2.21746,-2.04552 0.30726,-0.24488 0.75027,-0.5408 1.80825,-1.2078 0.42275,-0.26652 0.7128,-0.49532 1.07781,-0.85019 0.44581,-0.43343 0.51721,-0.48553 0.66534,-0.48553 0.19895,0 0.33911,0.14489 0.33911,0.35059 0,0.2162 -0.0605,0.28395 -0.54331,0.60846 -0.24983,0.16792 -0.65145,0.48936 -0.89248,0.71431 -0.24104,0.22496 -0.59442,0.53265 -0.78529,0.68377 -0.19087,0.15111 -0.58902,0.51021 -0.88477,0.798 -0.29576,0.28779 -0.79947,0.71488 -1.11935,0.9491 -0.91651,0.67104 -1.68543,1.30787 -2.13727,1.77013 -0.57484,0.58807 -0.87673,0.7695 -1.11572,0.67049 z m -3.60685,-2.5215 c -0.0873,-0.13321 -0.0896,-0.12397 0.23384,-0.92772 0.23171,-0.5758 0.34021,-0.96409 0.51079,-1.82776 0.0427,-0.21633 0.14762,-0.62491 0.23311,-0.90798 0.0855,-0.28305 0.2364,-0.84526 0.33534,-1.24935 0.11069,-0.45205 0.27124,-0.95035 0.41729,-1.29522 0.13056,-0.30827 0.28967,-0.75596 0.35356,-0.99486 0.14023,-0.52428 0.22991,-0.66068 0.44674,-0.67947 0.12164,-0.0105 0.18496,0.0141 0.27061,0.10526 0.14745,0.15695 0.13769,0.32894 -0.0433,0.76328 -0.0793,0.19017 -0.21757,0.5858 -0.30739,0.87917 -0.0898,0.29337 -0.28533,0.8978 -0.43446,1.34317 -0.14912,0.44538 -0.33642,1.03578 -0.41622,1.31201 -0.0798,0.27623 -0.26632,0.77627 -0.41451,1.11119 -0.31099,0.70295 -0.45893,1.15203 -0.6041,1.83388 -0.0569,0.26722 -0.13548,0.5223 -0.17464,0.56683 -0.10603,0.12058 -0.31747,0.10371 -0.40668,-0.0324 z m -4.89494,-1.08175 c -0.0588,-0.065 -0.0765,-0.17722 -0.0765,-0.48266 0,-0.21891 -0.0412,-0.72744 -0.0915,-1.13003 -0.0504,-0.4026 -0.1,-0.80651 -0.11021,-0.89758 -0.039,-0.34627 0.16114,-0.56044 0.45492,-0.4867 0.21092,0.0529 0.23005,0.15772 0.26699,1.46205 0.0191,0.67442 0.0348,1.27672 0.0348,1.33843 0,0.24737 -0.31512,0.37684 -0.47834,0.19649 z"
       id="path177" />
    <g
       id="g1536"
       transform="translate(-2.0410714,-15.950599)">
      <path
         d="M 21.042818,162.23725 H 100.77891 V 12.501158 H 21.042818 Z"
         style="fill:#000000;stroke:#000000;stroke-width:0.263914"
         id="path102"
         clip-path="url(#clipPath1431)"
         transform="translate(-8.9391356,12.03853)" />
      <path
         d="M 12.10368,174.27578 H 91.839767 V 24.539692 H 12.10368 Z"
         style="fill:none;stroke:#000000;stroke-width:0.263914"
         id="path102-5" />
    </g>
    <g
       id="g1540"
       transform="translate(228.57491,-16.955623)">
      <path
         style="fill:#000000;fill-opacity:1;stroke:none;stroke-width:0.123051;stroke-opacity:1"
         d="m -40.332495,103.78768 c -0.10949,-0.0289 -0.24798,-0.15554 -0.30764,-0.28161 -0.10802,-0.22833 -4.90515,-5.875816 -10.45658,-12.310156 -1.60576,-1.86114 -3.60307,-4.18021 -4.43849,-5.1535 -1.38264,-1.61079 -1.82119,-2.30809 -1.6731,-2.66022 0.0285,-0.0677 3.11998,-2.94708 6.87005,-6.39865 3.75007,-3.45158 6.81892,-6.30435 6.81967,-6.3395 7.5e-4,-0.0351 -0.48316,-0.19733 -1.07533,-0.36042 -3.91254,-1.0775 -7.96753,-2.33978 -8.1005,-2.52161 -0.0879,-0.12034 -0.18252,-0.15568 -0.2264,-0.0848 -0.0415,0.0671 -0.0191,0.1567 0.0497,0.19921 0.0688,0.0426 0.12506,0.23936 0.12506,0.43742 0,0.28888 -0.54273,1.01179 -2.74283,3.65351 -3.10777,3.73155 -5.36758,6.50083 -9.21476,11.2922 -1.46697,1.82701 -2.83239,3.47963 -3.03426,3.67247 -0.50541,0.48285 -0.9718,0.36583 -1.86055,-0.46678 -0.37529,-0.3516 -4.2539,-3.84096 -8.61912,-7.75414 -4.36524,-3.91318 -8.0631,-7.23468 -8.21748,-7.38111 -0.15437,-0.14643 -0.30996,-0.45707 -0.34576,-0.6903 -0.0585,-0.38141 0.0129,-0.517 0.71136,-1.34832 0.42704,-0.50835 2.21613,-2.66304 3.97576,-4.78822 1.75964,-2.12519 4.32556,-5.22003 5.70207,-6.87745 l 2.50273,-3.0135 -2.59055,-2.59609 -2.59056,-2.59607 -1.9215,-5.27476 c -1.34436,-3.6904 -1.89921,-5.36361 -1.84724,-5.57064 0.0408,-0.16273 1.28935,-2.13796 2.77446,-4.38938 l 2.70021,-4.09351 2.86661,-2.52881 c 1.57665,-1.39084 2.97712,-2.58793 3.11217,-2.66021 0.27888,-0.14925 10.36533,0.71997 11.07592,0.95449 0.37102,0.12245 1.48929,1.18912 3.40344,3.24638 l 0.67479,0.72525 1.29137,-1.89424 c 0.71025,-1.04183 1.89149,-2.78019 2.62499,-3.86305 0.73349,-1.08285 1.78498,-2.63328 2.33666,-3.44542 0.55168,-0.81213 1.70311,-2.50723 2.55876,-3.7669 1.63142,-2.40174 2.00373,-2.79595 2.42677,-2.56955 0.13466,0.0721 0.24484,0.0973 0.24484,0.0561 0,-0.0412 0.2907,0.0897 0.64601,0.29089 4.01932,2.27566 14.28414,8.0649 15.93342,8.98623 1.73657,0.97011 2.14325,1.24882 2.24401,1.53786 0.11129,0.31926 0.007,0.56643 -1.08955,2.5851 -1.66645,3.06745 -7.19872,13.73734 -7.12272,13.73734 0.0953,0 4.49931,0.98461 4.82883,1.07959 0.39982,0.11522 0.34513,-0.0189 2.21906,5.44211 0.38319,1.11668 1.19029,3.46119 1.79356,5.21002 1.0766,3.12096 1.22776,3.79039 0.96626,4.27903 -0.0718,0.13423 -2.32331,3.35606 -5.00325,7.15962 -2.67995,3.80355 -4.87762,7.00579 -4.88371,7.11609 -0.006,0.11034 0.79183,1.02629 1.77317,2.03556 0.98132,1.00927 3.5271,3.62438 5.65728,5.8114 3.78115,3.88202 3.87388,3.98905 3.90797,4.51166 l 0.0349,0.5353 -8.52238,9.56475 c -4.68731,5.260619 -8.57775,9.575286 -8.64542,9.588166 -0.0677,0.0129 -0.21268,-1.2e-4 -0.32223,-0.0291 z m -0.11875,-10.007706 c 0.23364,-12.8375 0.39737,-24.14108 0.35036,-24.18809 -0.0467,-0.0467 -2.00221,1.73744 -10.05775,9.1759 -2.5286,2.33488 -4.79222,4.41577 -5.03028,4.6242 l -0.43286,0.37895 1.53018,1.76739 c 0.84159,0.97204 2.08095,2.40733 2.75414,3.18952 0.67319,0.78217 1.72528,1.99954 2.33797,2.70525 0.61269,0.70573 2.21445,2.56071 3.55944,4.12221 1.345,1.5615 2.9785,3.457382 3.63,4.213089 0.65151,0.755707 1.19377,1.364817 1.20505,1.353557 0.011,-0.011 0.0805,-3.315136 0.15375,-7.341976 z m 2.66187,5.537292 c 0.80507,-0.913642 1.49494,-1.688862 1.53305,-1.722702 0.0382,-0.0339 2.73478,-3.05918 5.99261,-6.72299 l 5.92334,-6.66146 -7.21968,-7.43671 -7.21967,-7.43671 -0.0807,0.74715 c -0.0835,0.7733 -0.27355,9.29107 -0.47638,21.35818 -0.1442,8.578306 -0.14648,9.801036 -0.0181,9.653326 0.056,-0.0643 0.76038,-0.86443 1.56545,-1.778084 z m -26.01116,-19.442042 c 2.19723,-2.74095 5.16807,-6.44211 6.60186,-8.22477 1.4338,-1.78268 2.6058,-3.27774 2.60445,-3.32238 -0.003,-0.0927 -5.66069,-3.08749 -6.001,-3.17647 -0.12996,-0.034 -1.85994,0.74167 -4.14636,1.85909 -2.15787,1.05457 -3.94218,1.9362 -3.96515,1.95916 -0.0229,0.023 0.098,3.63344 0.26881,8.02324 0.17081,4.38981 0.31056,8.03649 0.31056,8.10376 0,0.17727 -0.0327,0.21668 4.32683,-5.22163 z m -5.86474,-3.16285 c -0.1778,-4.24992 -0.36133,-7.76367 -0.40785,-7.80833 -0.0466,-0.0446 -1.98164,-0.61227 -4.30026,-1.26137 l -4.21569,-1.18018 -3.10583,2.09911 c -1.70822,1.15451 -3.10585,2.1398 -3.10585,2.18953 0,0.076 2.30979,2.18594 7.62917,6.96892 2.22905,2.00431 5.10646,4.58279 6.02914,5.4028 0.54121,0.48103 1.15032,1.04071 1.35354,1.24374 0.21631,0.2161 0.38555,0.30774 0.4082,0.22103 0.0213,-0.0815 -0.1068,-3.62532 -0.28457,-7.87525 z m 37.14333,-10.00358 c 1.45276,-2.06417 2.6294,-3.76535 2.61478,-3.78041 -0.0146,-0.0152 -1.9062,0.57129 -4.20348,1.30295 -8.27564,2.63571 -12.47583,4.00207 -12.43323,4.04468 0.0239,0.0239 0.9927,0.32006 2.15299,0.65823 l 2.10959,0.61483 1.25751,-1.12866 c 1.48452,-1.33247 1.69266,-1.45118 2.08519,-1.1893 0.15505,0.10338 1.00176,0.93092 1.88157,1.83886 1.17941,1.21708 1.63829,1.61677 1.74669,1.52133 0.0808,-0.0712 1.33563,-1.81833 2.78839,-3.88251 z m -48.64477,0.15383 2.1305,-1.44586 2.13789,-3.63001 c 1.17583,-1.99649 2.22241,-3.7961 2.32573,-3.99915 l 0.18786,-0.36915 -0.30935,0.37907 c -0.67001,0.82105 -7.65344,9.25772 -8.16565,9.86492 -0.29972,0.3553 -0.52078,0.64601 -0.49123,0.64601 0.0295,0 1.01247,-0.65062 2.18425,-1.44583 z m 15.48824,-0.78445 c 2.00318,-1.02363 3.6812,-1.89606 3.72897,-1.93877 0.11912,-0.10648 -3.47781,-4.77806 -6.24081,-8.10527 -2.0334,-2.44864 -2.51754,-2.95637 -2.52263,-2.64559 -7.6e-4,0.0507 -1.59779,2.80556 -3.54879,6.12178 -1.98281,3.37028 -3.48812,6.05403 -3.41315,6.08516 0.18105,0.0751 8.10298,2.31557 8.24336,2.33135 0.061,0.007 1.74989,-0.82504 3.75305,-1.84866 z m 16.1318,1.31808 c 0,-0.0279 -0.64467,-1.14925 -1.43262,-2.49178 -1.34604,-2.29345 -3.70976,-5.98488 -3.57221,-5.57873 0.0344,0.10157 0.69516,1.81807 1.46836,3.81458 l 1.40586,3.63001 0.97302,0.32789 c 1.02714,0.34615 1.15759,0.37972 1.15759,0.29803 z m -4.47474,-2.85446 c -1.38349,-3.59689 -2.0788,-5.31999 -3.26659,-8.09515 -0.54741,-1.27895 -0.99528,-2.41814 -0.99528,-2.53151 0,-0.11339 0.34214,-0.67278 0.76031,-1.2431 0.41819,-0.57033 2.61208,-3.58412 4.87531,-6.6973 2.26324,-3.11319 4.28528,-5.87822 4.49341,-6.14451 0.20814,-0.26632 0.32606,-0.5042 0.26206,-0.52867 -0.064,-0.0245 -1.30687,-0.78265 -2.76195,-1.68488 -1.45506,-0.90222 -2.65608,-1.63211 -2.66888,-1.62197 -0.0128,0.01 0.30874,0.95857 0.71458,2.10755 0.40582,1.149 0.76684,2.33826 0.80224,2.64281 0.0606,0.52124 -0.0547,0.79555 -1.96682,4.67593 l -2.03119,4.12221 -1.02421,0.9918 c -0.5633,0.54551 -1.82671,1.73602 -2.80757,2.6456 -0.98084,0.90958 -2.00525,1.8659 -2.27643,2.12513 l -0.49307,0.47134 -1.64113,-0.0615 -1.64114,-0.0615 0.90283,0.83353 c 0.49656,0.45843 3.3374,3.08143 6.31298,5.82888 2.97559,2.74745 5.42735,4.97816 5.44836,4.95715 0.021,-0.0209 -0.42801,-1.25027 -0.99782,-2.7317 z m 14.10596,0.20557 c 4.00854,-1.21415 7.91078,-2.39083 8.67163,-2.61483 0.76086,-0.22401 1.36996,-0.4433 1.35356,-0.48731 -0.0165,-0.044 -1.25467,-1.06841 -2.75172,-2.27644 -9.3917,-7.57859 -11.31821,-9.11965 -11.42356,-9.13804 -0.12469,-0.0217 -0.26483,0.67195 -2.10175,10.40377 -1.24229,6.58154 -1.19682,6.32039 -1.10045,6.32039 0.0352,0 3.34374,-0.99341 7.35229,-2.20754 z m -6.947,-6.49832 c 0.89688,-4.58518 1.62887,-8.3729 1.62662,-8.41715 -0.005,-0.0919 0.23686,-0.18052 -5.97204,2.19528 -2.57176,0.98408 -4.72316,1.83295 -4.78089,1.88637 -0.0983,0.091 2.76097,5.0904 5.45293,9.53439 1.6963,2.80033 1.90403,3.12956 1.97734,3.13391 0.036,0.002 0.79914,-3.74761 1.69604,-8.3328 z m -10.50412,7.00382 c -0.0643,-0.0563 -1.55089,-1.42679 -3.30354,-3.04552 -1.75266,-1.61872 -3.38617,-3.10924 -3.63,-3.31228 l -0.44335,-0.36915 0.39001,0.4922 c 0.2145,0.27072 1.22188,1.51661 2.23862,2.76864 l 1.84862,2.27645 1.39138,0.63719 c 1.35588,0.62092 1.75218,0.76608 1.50826,0.55247 z m 28.02867,-5.28102 c -0.12013,-2.12199 -0.6437,-14.37054 -0.6437,-15.05887 0,-0.46505 -0.028,-0.84553 -0.0623,-0.84553 -0.12795,0 -13.29193,4.94917 -13.36905,5.02626 -0.0691,0.0691 13.87915,11.44765 14.04663,11.45866 0.0339,0.002 0.0466,-0.25901 0.0284,-0.58052 z m 3.62603,-2.94285 c 0.15948,-0.24319 0.0461,-0.63999 -1.30152,-4.55287 -0.81192,-2.35757 -1.51401,-4.44134 -1.56021,-4.6306 -0.0461,-0.18926 -0.10627,-0.32184 -0.1335,-0.29461 -0.0273,0.0272 0.0902,2.8861 0.26088,6.35302 0.17071,3.46693 0.31039,6.36041 0.31039,6.42995 0,0.10359 1.78199,-2.32598 2.42396,-3.30489 z m -37.03086,-3.57893 c 0.4566,-1.20593 1.17071,-3.48355 1.11094,-3.54332 -0.0249,-0.0249 -2.04624,-0.7368 -4.49192,-1.58201 l -4.44667,-1.53675 -3.20645,1.20142 c -1.76357,0.6608 -3.24403,1.23899 -3.28992,1.28489 -0.0894,0.0894 3.88431,4.14497 4.06118,4.145 0.0579,0 0.22318,-0.15227 0.36721,-0.33839 0.60959,-0.78769 1.36137,-1.50736 1.57462,-1.50736 0.12609,0 0.22927,-0.0489 0.22927,-0.10852 0,-0.31282 0.96783,0.30498 1.96636,1.25522 0.62229,0.59217 1.25569,1.15811 1.40756,1.25761 0.25087,0.16438 2.01032,0.35434 3.78302,0.40841 l 0.57371,0.0175 z m 5.10206,-4.09143 c 0.64635,-0.60915 0.82278,-0.89813 1.76542,-2.8917 0.57602,-1.21821 0.94156,-2.10417 0.81233,-1.96882 -0.12925,0.13536 -1.38375,1.51235 -2.78778,3.05998 -2.51499,2.77221 -2.55987,2.83127 -3.03082,3.98874 -0.26292,0.64616 -0.47804,1.19962 -0.47804,1.2299 0,0.0488 1.62834,-1.4479 3.71889,-3.4181 z m 7.35316,1.1147 c 2.80724,-1.0785 5.12091,-2.0114 5.14148,-2.07309 0.0291,-0.0876 -1.74364,-6.50164 -2.01181,-7.27879 -0.0385,-0.1118 -0.3661,0.24548 -0.88663,0.96727 -0.45398,0.62954 -2.30666,3.19205 -4.11704,5.69451 -3.01479,4.16728 -3.35482,4.65231 -3.26085,4.65134 0.017,-1.2e-4 2.32762,-0.88272 5.13485,-1.96124 z m -6.86807,-5.74216 c 2.12071,-2.27439 3.86934,-4.1709 3.88583,-4.21449 0.0228,-0.0602 -3.95804,-5.27888 -5.94013,-7.78732 l -0.24981,-0.31614 -4.71074,1.31891 c -2.59091,0.72541 -4.75467,1.36801 -4.80832,1.42803 -0.0994,0.1112 -1.18221,10.61559 -1.10059,10.67648 0.12155,0.0907 8.68641,3.00641 8.86309,3.01724 0.11948,0.007 1.81044,-1.70941 4.06067,-4.12271 z m -17.32575,2.03667 c 1.81616,-0.76465 3.31805,-1.44972 3.33754,-1.52237 0.0195,-0.0726 0.23919,-2.37471 0.48819,-5.11566 0.249,-2.74096 0.47161,-5.04396 0.49469,-5.11776 0.0231,-0.0738 0.005,-0.18792 -0.0389,-0.25353 -0.11668,-0.172 -5.75969,-3.73447 -5.91552,-3.73447 -0.11863,0 -2.13745,2.95798 -4.42908,6.4896 l -0.8974,1.38298 0.98498,2.6777 c 0.54174,1.47273 1.30875,3.57773 1.70445,4.6778 0.39571,1.10007 0.77561,1.97894 0.84423,1.95306 0.0686,-0.026 1.6107,-0.67268 3.42685,-1.43735 z m 36.56985,-1.05765 c 3.28088,-1.26218 5.94351,-2.3166 5.91696,-2.34314 -0.0698,-0.0697 -14.15991,-3.08796 -14.21138,-3.04417 -0.0838,0.0713 2.11878,7.68218 2.22319,7.68218 0.0583,0 2.79034,-1.03269 6.07123,-2.29487 z m 3.03903,-5.9803 c 0.38665,-0.76138 1.27457,-2.49178 1.97314,-3.84533 0.69858,-1.35357 1.98113,-3.84534 2.85011,-5.53728 0.86898,-1.69196 1.76573,-3.4206 1.99277,-3.84143 0.22704,-0.42085 0.4128,-0.81583 0.4128,-0.87774 0,-0.11193 -2.16642,-1.37186 -2.3588,-1.37186 -0.0553,0 -1.46778,0.86392 -3.13875,1.91982 -1.67097,1.0559 -3.1047,1.94536 -3.18609,1.9766 -0.14311,0.055 -0.22806,2.7425 -0.32976,10.4327 l -0.0308,2.33167 0.30762,0.0863 c 0.73941,0.20747 0.76796,0.18334 1.50779,-1.27348 z m -2.69205,-3.26084 c 0.0411,-2.35181 0.0996,-5.14814 0.13003,-6.21407 l 0.0552,-1.93805 -0.33109,-7.5e-4 c -0.18212,-3.8e-4 -1.79848,-0.081 -3.59195,-0.17907 -1.79347,-0.098 -3.64914,-0.19235 -4.12371,-0.20955 l -0.86284,-0.0313 -2.85491,2.18173 -2.85489,2.18174 4.35485,3.49568 c 2.39516,1.92263 4.49009,3.5843 4.65537,3.6926 0.21772,0.14264 4.35273,1.15119 5.27108,1.28563 0.0429,0.006 0.11168,-1.91279 0.15282,-4.26458 z m -7.55674,2.50846 c -0.0991,-0.0923 -1.85403,-1.50435 -3.89983,-3.1378 l -3.71966,-2.9699 h -0.80246 c -0.44137,0 -0.80248,0.0472 -0.80248,0.10477 0,0.0576 0.0601,0.27703 0.13352,0.48769 0.11388,0.32666 0.65241,0.70235 3.66076,2.55384 1.93999,1.19396 3.72721,2.32756 3.97159,2.5191 0.40999,0.32134 1.02063,0.57218 1.45856,0.59915 0.15821,0.01 0.15821,-0.01 0,-0.15679 z m -9.78435,-3.28234 c -0.2343,-0.6403 -0.62654,-1.75147 -0.87165,-2.46928 l -0.44567,-1.30512 -1.46086,-1.55469 c -0.9858,-1.04912 -1.46088,-1.47765 -1.46088,-1.31778 0,0.39723 0.36658,2.00673 0.53283,2.33952 0.19942,0.39915 4.03514,5.56859 4.09068,5.51306 0.0228,-0.0229 -0.15016,-0.56541 -0.38445,-1.20571 z m -9.62056,-3.14801 c 2.51992,-0.71888 4.60226,-1.32548 4.62741,-1.34802 0.13251,-0.11875 -0.73751,-3.79678 -0.95029,-4.01739 -0.0752,-0.0779 -8.98096,-0.95537 -9.70662,-0.95633 -0.17964,-2.4e-4 -1.04044,0.6712 -2.48418,1.9377 -1.21509,1.06594 -2.21114,1.96573 -2.21342,1.99958 -0.007,0.096 5.81441,3.67665 5.98963,3.68452 0.0857,0.003 2.21755,-0.58118 4.73747,-1.30006 z m 14.40128,-2.9038 3.102,-2.36509 0.51819,-4.91957 c 0.28499,-2.70575 0.50259,-4.93514 0.48353,-4.9542 -0.0818,-0.0818 -9.06281,13.46244 -9.06281,13.66753 0,0.0247 0.0838,0.24559 0.18622,0.49073 0.18485,0.44241 0.19173,0.4457 0.92855,0.4457 h 0.74232 z m 13.00633,-2.30697 c 0,-0.0656 0.0782,-0.0891 0.17379,-0.0525 0.20087,0.0771 6.00659,-3.53984 5.87871,-3.66239 -0.0935,-0.0896 -13.80131,-7.84557 -13.81038,-7.81399 -0.0382,0.13277 -1.18919,11.10346 -1.16753,11.12765 0.0262,0.0294 7.25506,0.45934 8.46397,0.50353 0.25379,0.01 0.46144,-0.0367 0.46144,-0.10229 z m 27.6864411,58.97065 c -0.15061,-0.0575 -6.5499311,-4.07001 -14.9272011,-9.35974 -0.79923,-0.50466 -1.54095,-1.0516 -1.64828,-1.21541 -0.17671,-0.26968 -0.18158,-0.97433 -0.0516,-7.45988 0.079,-3.93914 0.17437,-7.45535 0.212,-7.81381 0.0555,-0.52894 0.14197,-0.71837 0.45877,-1.00538 0.41102,-0.37238 9.06886,-6.97633 9.6162,-7.33495 0.17505,-0.11473 0.29434,-0.23248 0.2651,-0.26171 -0.0293,-0.0293 -1.63062,0.0623 -3.55864,0.2034 -3.62854,0.26558 -4.01467,0.2471 -4.24744,-0.2033 -0.17243,-0.33362 -0.16494,-0.27684 -1.62715,-12.33474 -0.75048,-6.18868 -1.33244,-11.37989 -1.29326,-11.53601 0.0392,-0.15612 0.14864,-0.28386 0.24322,-0.28386 0.0946,0 0.19044,-0.0537 0.213,-0.11924 0.0434,-0.12593 0.59823,-0.17913 14.1724,-1.35883 5.9283311,-0.51521 8.7516611,-0.71573 9.1020612,-0.64644 0.42388,0.0838 0.52402,0.16105 0.60494,0.46646 0.0533,0.20129 0.70914,5.59368 1.45733999,11.98307 1.31029994,11.18947 1.35215994,11.62467 1.13723994,11.82304 -0.17479,0.16133 -1.03626994,0.29277 -3.97618003,0.60664 -2.06418,0.22038 -3.8969,0.43728 -4.07272,0.48204 -0.27382,0.0697 0.60223,0.6082 6.1098901,3.75559 6.1782399,3.5306 6.4312999,3.68933 6.4742299,4.06067 0.0609,0.52701 -0.25036,14.80653 -0.33361,15.30353 -0.0571,0.3407 -1.02006,1.24477 -6.7828799,6.36788 -6.8781701,6.11468 -6.8968401,6.1292 -7.5474601,5.88096 z m 0.0911,-14.653 -0.0296,-2.2532 -7.5061011,-4.21919 c -4.12836,-2.32055 -7.53778,-4.20268 -7.5765,-4.18248 -0.0387,0.0201 -0.0822,0.91166 -0.0966,1.98103 -0.0144,1.06938 -0.0805,4.20913 -0.14688,6.97722 -0.0664,2.76809 -0.10597,5.04649 -0.088,5.06314 0.018,0.0167 1.30627,0.83224 2.86286,1.81245 1.5566,0.98019 4.98972,3.14417 7.62916,4.8088 l 4.7989811,3.02661 0.0911,-5.3806 c 0.0501,-2.95933 0.0778,-6.39452 0.0615,-7.63378 z m 6.8353501,7.40537 c 3.26277993,-2.88508 5.9690499,-5.36303 6.0139499,-5.50653 0.0795,-0.25395 0.38972,-13.24311 0.31803,-13.31478 -0.0198,-0.0198 -2.78954,2.04891 -6.1550199,4.59713 l -6.1190501,4.6331 -3.7e-4,5.11115 c -2.5e-4,2.81113 -0.0367,6.14938 -0.081,7.41834 -0.0443,1.26896 -0.042,2.3072 0.005,2.3072 0.0472,0 2.75541,-2.36051 6.0181801,-5.24561 z m -0.0807,-15.20666 c 5.5824699,-4.22289 6.1929899,-4.71826 5.9941899,-4.86362 -0.12174,-0.089 -3.48266991,-2.02414 -7.46871,-4.30026 -6.7920201,-3.87839 -7.2644001,-4.12753 -7.5187901,-3.96527 -0.746971,0.47643 -12.364781,9.38917 -12.310111,9.44384 0.12476,0.12475 14.8895411,8.38707 14.9877311,8.38707 0.0551,0 2.89715,-2.11579 6.3156901,-4.70176 z M -12.611305,49.696514 c 0.4288,-0.30302 0.84885,-0.52608 0.93344,-0.49571 0.0846,0.0303 0.153821,-0.002 0.153821,-0.0725 0,-0.14881 0.7206,0.0844 1.30075,0.42102 0.3678701,0.21345 0.4941701,0.20606 4.7747901,-0.27939 2.41831,-0.27423 4.4259201,-0.52762 4.46135012,-0.56304 0.0355,-0.0354 -1.60688012,-1.97922 -3.64958012,-4.31955 -2.4398,-2.79529 -3.7652,-4.22388 -3.86325,-4.164 -0.20918,0.12771 -12.2336911,10.35832 -12.2992011,10.46432 -0.0294,0.0475 1.62539,-0.0319 3.67738,-0.17676 l 3.73088,-0.26336 z m -2.48122,-5.12997 c 3.2147,-2.72694 5.8581211,-4.99304 5.8742611,-5.0358 0.0237,-0.0628 -15.5006911,-10.10668 -15.5472411,-10.05875 -0.008,0.007 0.55728,4.6929 1.2549,10.41169 0.69761,5.71878 1.27125,10.47374 1.27476,10.56656 0.004,0.0982 0.27658,-0.0601 0.65238,-0.37845 0.35532,-0.30097 3.27624,-2.77834 6.49094,-5.50525 z m 13.2597212,-6.34404 c -0.60692,-5.00818 -1.1277801,-9.18581 -1.1574901,-9.28365 -0.0297,-0.0979 -1.10624,2.19241 -2.39231,5.08941 -1.28608,2.89702 -2.3219,5.31602 -2.30184,5.37555 0.0427,0.12685 6.90202012,7.99396 6.93369012,7.95249 0.0118,-0.0155 -0.47514002,-4.12564 -1.08205002,-9.1338 z m -4.0678301,-5.32268 c 1.74935,-3.93969 2.55596,-5.8869 2.44864,-5.91121 -0.13004,-0.0294 -19.5983211,1.61908 -20.4386611,1.7307 -0.18269,0.0243 -0.04,0.16537 0.55373,0.54764 0.4399,0.28322 3.92839,2.53359 7.75219,5.00082 3.82381,2.46723 6.9800711,4.49063 7.0139111,4.49643 0.0339,0.006 1.23543,-2.63317 2.67019,-5.86438 z"
         id="path193"
         clip-path="url(#clipPath1528)"
         transform="translate(-32.762321,0.627043)" />
      <path
         d="m -128.19287,175.28081 h 79.736089 V 25.544711 h -79.736089 z"
         style="fill:none;stroke:#000000;stroke-width:0.263914"
         id="path102-5-3-6" />
    </g>
  </g>
</svg>
